<?xml version="1.0" encoding="UTF-8" standalone="no"?>
<!-- Created with Inkscape (http://www.inkscape.org/) -->

<svg
   version="1.1"
   id="svg2"
   xml:space="preserve"
   width="1036"
   height="1185.76"
   viewBox="0 0 1036 1185.76"
   sodipodi:docname="darwin-plus-google-4_3.svg"
   inkscape:version="1.1.1 (3bf5ae0d25, 2021-09-20)"
   xmlns:inkscape="http://www.inkscape.org/namespaces/inkscape"
   xmlns:sodipodi="http://sodipodi.sourceforge.net/DTD/sodipodi-0.dtd"
   xmlns="http://www.w3.org/2000/svg"
   xmlns:svg="http://www.w3.org/2000/svg"><defs
     id="defs6"><rect
       x="-233.00713"
       y="232.18034"
       width="160.20094"
       height="112.31148"
       id="rect1794" /><rect
       x="-233.00713"
       y="232.18034"
       width="160.20094"
       height="112.31148"
       id="rect7780" /><rect
       x="-233.00713"
       y="232.18034"
       width="160.20094"
       height="112.31148"
       id="rect7784" /><rect
       x="-233.00713"
       y="232.18034"
       width="160.20094"
       height="112.31148"
       id="rect10762" /><rect
       x="-233.00713"
       y="232.18034"
       width="160.20094"
       height="112.31148"
       id="rect10766" /><rect
       x="-233.00713"
       y="232.18034"
       width="160.20094"
       height="112.31148"
       id="rect10770" /><rect
       x="-233.00713"
       y="232.18034"
       width="160.20094"
       height="112.31148"
       id="rect10774" /><rect
       x="-233.00713"
       y="232.18034"
       width="160.20094"
       height="112.31148"
       id="rect13556" /><rect
       x="-233.00713"
       y="232.18034"
       width="160.20094"
       height="112.31148"
       id="rect15254" /><rect
       x="-233.00713"
       y="232.18034"
       width="160.20094"
       height="112.31148"
       id="rect16638" /><rect
       x="-233.00713"
       y="232.18034"
       width="160.20094"
       height="112.31148"
       id="rect16642" /><rect
       x="-233.00713"
       y="232.18034"
       width="160.20094"
       height="112.31148"
       id="rect16646" /><rect
       x="-233.00713"
       y="232.18034"
       width="160.20094"
       height="112.31148"
       id="rect16650" /><rect
       x="-233.00713"
       y="232.18034"
       width="160.20094"
       height="112.31148"
       id="rect16654" /><rect
       x="-233.00713"
       y="232.18034"
       width="160.20094"
       height="112.31148"
       id="rect16658" /><rect
       x="-233.00713"
       y="232.18034"
       width="160.20094"
       height="112.31148"
       id="rect16662" /><rect
       x="-233.00713"
       y="232.18034"
       width="160.20094"
       height="112.31148"
       id="rect16666" /><rect
       x="-233.00713"
       y="232.18034"
       width="160.20094"
       height="112.31148"
       id="rect16670" /><rect
       x="-233.00713"
       y="232.18034"
       width="160.20094"
       height="112.31148"
       id="rect16674" /><rect
       x="-233.00713"
       y="232.18034"
       width="160.20094"
       height="112.31148"
       id="rect26106" /><rect
       x="-233.00713"
       y="232.18034"
       width="160.20094"
       height="112.31148"
       id="rect27964" /><rect
       x="-233.00713"
       y="232.18034"
       width="160.20094"
       height="112.31148"
       id="rect27968" /><rect
       x="-233.00713"
       y="232.18034"
       width="160.20094"
       height="112.31148"
       id="rect27972" /><rect
       x="-233.00713"
       y="232.18034"
       width="160.20094"
       height="112.31148"
       id="rect27976" /><rect
       x="-233.00713"
       y="232.18034"
       width="160.20094"
       height="112.31148"
       id="rect27984" /><rect
       x="-233.00713"
       y="232.18034"
       width="160.20094"
       height="112.31148"
       id="rect27988" /></defs><sodipodi:namedview
     id="namedview4"
     pagecolor="#ffffff"
     bordercolor="#666666"
     borderopacity="1.0"
     inkscape:pageshadow="2"
     inkscape:pageopacity="0.0"
     inkscape:pagecheckerboard="0"
     showgrid="false"
     inkscape:zoom="0.69069626"
     inkscape:cx="660.20337"
     inkscape:cy="603.0147"
     inkscape:window-width="1920"
     inkscape:window-height="1000"
     inkscape:window-x="0"
     inkscape:window-y="27"
     inkscape:window-maximized="1"
     inkscape:current-layer="g8" /><g
     id="g8"
     inkscape:groupmode="layer"
     inkscape:label="darwin-plus-google-4_2"
     transform="matrix(1.3333333,0,0,1.3333333,0,2.0310667e-5)"><g
       id="g10"><text
         transform="translate(219.74998,28.32003)"
         style="font-variant:normal;font-weight:normal;font-size:20px;font-family:'Nimbus Sans';-inkscape-font-specification:NimbusSans-Regular;writing-mode:lr-tb;fill:#000000;fill-opacity:1;fill-rule:nonzero;stroke:none"
         id="text14"><tspan
           x="0 14.44 27.4 41.84 47.400002 54.060001 68.220001 79.339996 86.620003 101.06 105.5 116.62 123.28 128.84 140.52 146.08 157.2 162.75999 178.38 189.5 200.62 211.62 216.06 227.17999 232.74001 247.17999 251.62 262.73999 273.85999 284.98001 290.54001 305.04001 316.16 327.28 338.32001"
           y="0"
           sodipodi:role="line"
           id="tspan12">HPC (Darwin) + 4 Google Cloud Nodes</tspan></text><text
         transform="translate(163.5,866.81998)"
         style="font-variant:normal;font-weight:normal;font-size:15px;font-family:'Nimbus Sans';-inkscape-font-specification:NimbusSans-Regular;writing-mode:lr-tb;fill:#000000;fill-opacity:1;fill-rule:nonzero;stroke:none"
         id="text18"><tspan
           x="0 9.5100002 19.514999 30.344999 41.174999 45.345001 56.174999"
           y="0"
           sodipodi:role="line"
           id="tspan16">PENDING</tspan></text><path
         d="m 237,845.82 h 30 v 30 h -30 z"
         style="fill:#ff0000;fill-opacity:1;fill-rule:nonzero;stroke:none"
         id="path20" /><text
         transform="translate(281.99998,866.81998)"
         style="font-variant:normal;font-weight:normal;font-size:15px;font-family:'Nimbus Sans';-inkscape-font-specification:NimbusSans-Regular;writing-mode:lr-tb;fill:#000000;fill-opacity:1;fill-rule:nonzero;stroke:none"
         id="text24"><tspan
           x="0 10.59 21.42 32.25 43.080002 47.25 58.080002"
           y="0"
           sodipodi:role="line"
           id="tspan22">RUNNING</tspan></text><path
         d="m 355.5,845.82 h 30 v 30 h -30 z"
         style="fill:#0000ff;fill-opacity:1;fill-rule:nonzero;stroke:none"
         id="path26" /><text
         transform="translate(20.999998,60.570028)"
         style="font-variant:normal;font-weight:normal;font-size:14px;font-family:'Nimbus Sans';-inkscape-font-specification:NimbusSans-Regular;writing-mode:lr-tb;fill:#000000;fill-opacity:1;fill-rule:nonzero;stroke:none"
         id="text80"><tspan
           x="0 11.662 19.445999 26.152 33.936001 41.720001 44.827999 52.612 59.612 63.391998 71.176003"
           y="0"
           sodipodi:role="line"
           id="tspan28">makeblastdb</tspan><tspan
           x="0 3.892 11.676 18.620001 25.004 29.666 39.731998 49.84 57.624001 65.407997 73.192001 80.975998 88.760002 96.543999 104.328 108.906 112.686 120.47 127.428 131.32001"
           y="198"
           sodipodi:role="line"
           id="tspan30">task-NC_009064-fasta</tspan><tspan
           x="0 3.892 11.676 18.620001 25.004 29.666 39.731998 49.84 57.624001 65.407997 73.192001 80.975998 88.760002 96.543999 104.328 108.906 112.686 120.47 127.428 131.32001"
           y="396"
           sodipodi:role="line"
           id="tspan32">task-NC_011169-fasta</tspan><tspan
           x="0 3.892 11.676 18.620001 25.004 29.666 39.731998 49.84 57.624001 65.407997 73.192001 80.975998 88.760002 96.543999 104.328 108.906 112.686 120.47 127.428 131.32001"
           y="707.25"
           sodipodi:role="line"
           id="tspan34">task-NC_018815-fasta</tspan><tspan
           x="0 3.892 11.676 18.620001 25.004 29.666 39.731998 49.84 57.624001 65.407997 73.192001 80.975998 88.760002 96.543999 104.328 108.906 112.686 120.47 127.428 131.32001"
           y="113.25"
           sodipodi:role="line"
           id="tspan36">task-NC_009060-fasta</tspan><tspan
           x="0 3.892 11.676 18.620001 25.004 29.666 39.731998 49.84 57.624001 65.407997 73.192001 80.975998 88.760002 96.543999 104.328 108.906 112.686 120.47 127.428 131.32001"
           y="339.75"
           sodipodi:role="line"
           id="tspan38">task-NC_010205-fasta</tspan><tspan
           x="0 3.892 11.676 18.620001 25.004 29.666 39.731998 49.84 57.624001 65.407997 73.192001 80.975998 88.760002 96.543999 104.328 108.906 112.686 120.47 127.428 131.32001"
           y="255"
           sodipodi:role="line"
           id="tspan40">task-NC_009066-fasta</tspan><tspan
           x="0 3.892 11.676 18.620001 25.004 29.666 39.731998 49.84 57.624001 65.407997 73.192001 80.975998 88.760002 96.543999 104.328 108.906 112.686 120.47 127.428 131.32001"
           y="452.25"
           sodipodi:role="line"
           id="tspan42">task-NC_011171-fasta</tspan><tspan
           x="0 3.892 11.676 18.620001 25.004 29.666 39.731998 49.84 57.624001 65.407997 73.192001 80.975998 88.760002 96.543999 104.328 108.906 112.686 120.47 127.428 131.32001"
           y="28.50001"
           sodipodi:role="line"
           id="tspan44">task-NC_009057-fasta</tspan><tspan
           x="0 3.892 11.676 18.620001 25.004 29.666 39.731998 49.84 57.624001 65.407997 73.192001 80.975998 88.760002 96.543999 104.328 108.906 112.686 120.47 127.428 131.32001"
           y="424.49997"
           sodipodi:role="line"
           id="tspan46">task-NC_011170-fasta</tspan><tspan
           x="0 3.892 11.676 18.620001 25.004 29.666 39.731998 49.84 57.624001 65.407997 73.192001 80.975998 88.760002 96.543999 104.328 108.906 112.686 120.47 127.428 131.32001"
           y="480.74997"
           sodipodi:role="line"
           id="tspan48">task-NC_011177-fasta</tspan><tspan
           x="0 3.892 11.676 18.620001 25.004 29.666 39.731998 49.84 57.624001 65.407997 73.192001 80.975998 88.760002 96.543999 104.328 108.906 112.686 120.47 127.428 131.32001"
           y="650.25"
           sodipodi:role="line"
           id="tspan50">task-NC_013750-fasta</tspan><tspan
           x="0 3.892 11.676 18.620001 25.004 29.666 39.731998 49.84 57.624001 65.407997 73.192001 80.975998 88.760002 96.543999 104.328 108.906 112.686 120.47 127.428 131.32001"
           y="678.75"
           sodipodi:role="line"
           id="tspan52">task-NC_018814-fasta</tspan><tspan
           x="0 3.892 11.676 18.620001 25.004 29.666 39.731998 49.84 57.624001 65.407997 73.192001 80.975998 88.760002 96.543999 104.328 108.906 112.686 120.47 127.428 131.32001"
           y="367.49997"
           sodipodi:role="line"
           id="tspan54">task-NC_011168-fasta</tspan><tspan
           x="0 3.892 11.676 18.620001 25.004 29.666 39.731998 49.84 57.624001 65.407997 73.192001 80.975998 88.760002 96.543999 104.328 108.906 112.686 120.47 127.428 131.32001"
           y="84.749992"
           sodipodi:role="line"
           id="tspan56">task-NC_009059-fasta</tspan><tspan
           x="0 3.892 11.676 18.620001 25.004 29.666 39.731998 49.84 57.624001 65.407997 73.192001 80.975998 88.760002 96.543999 104.328 108.906 112.686 120.47 127.428 131.32001"
           y="565.5"
           sodipodi:role="line"
           id="tspan58">task-NC_013564-fasta</tspan><tspan
           x="0 3.892 11.676 18.620001 25.004 29.666 39.731998 49.84 57.624001 65.407997 73.192001 80.975998 88.760002 96.543999 104.328 108.906 112.686 120.47 127.428 131.32001"
           y="311.24997"
           sodipodi:role="line"
           id="tspan60">task-NC_009459-fasta</tspan><tspan
           x="0 3.892 11.676 18.620001 25.004 29.666 39.731998 49.84 57.624001 65.407997 73.192001 80.975998 88.760002 96.543999 104.328 108.906 112.686 120.47 127.428 131.32001"
           y="56.999992"
           sodipodi:role="line"
           id="tspan62">task-NC_009058-fasta</tspan><tspan
           x="0 3.892 11.676 18.620001 25.004 29.666 39.731998 49.84 57.624001 65.407997 73.192001 80.975998 88.760002 96.543999 104.328 108.906 112.686 120.47 127.428 131.32001"
           y="594"
           sodipodi:role="line"
           id="tspan64">task-NC_013577-fasta</tspan><tspan
           x="0 3.892 11.676 18.620001 25.004 29.666 39.731998 49.84 57.624001 65.407997 73.192001 80.975998 88.760002 96.543999 104.328 108.906 112.686 120.47 127.428 131.32001"
           y="622.5"
           sodipodi:role="line"
           id="tspan66">task-NC_013663-fasta</tspan><tspan
           x="0 3.892 11.676 18.620001 25.004 29.666 39.731998 49.84 57.624001 65.407997 73.192001 80.975998 88.760002 96.543999 104.328 108.906 112.686 120.47 127.428 131.32001"
           y="509.25"
           sodipodi:role="line"
           id="tspan68">task-NC_011179-fasta</tspan><tspan
           x="0 3.892 11.676 18.620001 25.004 29.666 39.731998 49.84 57.624001 65.407997 73.192001 80.975998 88.760002 96.543999 104.328 108.906 112.686 120.47 127.428 131.32001"
           y="170.24997"
           sodipodi:role="line"
           id="tspan70">task-NC_009063-fasta</tspan><tspan
           x="0 3.892 11.676 18.620001 25.004 29.666 39.731998 49.84 57.624001 65.407997 73.192001 80.975998 88.760002 96.543999 104.328 108.906 112.686 120.47 127.428 131.32001"
           y="282.74997"
           sodipodi:role="line"
           id="tspan72">task-NC_009067-fasta</tspan><tspan
           x="0 3.892 11.676 18.620001 25.004 29.666 39.731998 49.84 57.624001 65.407997 73.192001 80.975998 88.760002 96.543999 104.328 108.906 112.686 120.47 127.428 131.32001"
           y="226.49997"
           sodipodi:role="line"
           id="tspan74">task-NC_009065-fasta</tspan><tspan
           x="0 3.892 11.676 18.620001 25.004 29.666 39.731998 49.84 57.624001 65.407997 73.192001 80.975998 88.760002 96.543999 104.328 108.906 112.686 120.47 127.428 131.32001"
           y="141.74997"
           sodipodi:role="line"
           id="tspan76">task-NC_009062-fasta</tspan><tspan
           x="0 3.892 11.676 18.620001 25.004 29.666 39.731998 49.84 57.624001 65.407997 73.192001 80.975998 88.760002 96.543999 104.328 108.906 112.686 120.47 127.428 131.32001"
           y="537.75"
           sodipodi:role="line"
           id="tspan78">task-NC_012055-fasta</tspan></text><g
         id="g82"><path
           d="m 13.5,46.32 h 750"
           style="fill:none;stroke:#000000;stroke-width:0.75;stroke-linecap:butt;stroke-linejoin:miter;stroke-miterlimit:4;stroke-dasharray:none;stroke-opacity:1"
           id="path84" /></g><g
         id="g86"><path
           d="m 13.5,243.57 h 750"
           style="fill:none;stroke:#000000;stroke-width:0.75;stroke-linecap:butt;stroke-linejoin:miter;stroke-miterlimit:4;stroke-dasharray:none;stroke-opacity:1"
           id="path88" /></g><g
         id="g90"><path
           d="m 13.5,441.57 h 750"
           style="fill:none;stroke:#000000;stroke-width:0.75;stroke-linecap:butt;stroke-linejoin:miter;stroke-miterlimit:4;stroke-dasharray:none;stroke-opacity:1"
           id="path92" /></g><g
         id="g94"><path
           d="m 13.5,752.82 h 750"
           style="fill:none;stroke:#000000;stroke-width:0.75;stroke-linecap:butt;stroke-linejoin:miter;stroke-miterlimit:4;stroke-dasharray:none;stroke-opacity:1"
           id="path96" /></g><g
         id="g98"><path
           d="m 13.5,158.82 h 750"
           style="fill:none;stroke:#000000;stroke-width:0.75;stroke-linecap:butt;stroke-linejoin:miter;stroke-miterlimit:4;stroke-dasharray:none;stroke-opacity:1"
           id="path100" /></g><g
         id="g102"><path
           d="m 13.5,385.32 h 750"
           style="fill:none;stroke:#000000;stroke-width:0.75;stroke-linecap:butt;stroke-linejoin:miter;stroke-miterlimit:4;stroke-dasharray:none;stroke-opacity:1"
           id="path104" /></g><g
         id="g106"><path
           d="m 13.5,300.57 h 750"
           style="fill:none;stroke:#000000;stroke-width:0.75;stroke-linecap:butt;stroke-linejoin:miter;stroke-miterlimit:4;stroke-dasharray:none;stroke-opacity:1"
           id="path108" /></g><g
         id="g110"><path
           d="m 13.5,498.57 h 750"
           style="fill:none;stroke:#000000;stroke-width:0.75;stroke-linecap:butt;stroke-linejoin:miter;stroke-miterlimit:4;stroke-dasharray:none;stroke-opacity:1"
           id="path112" /></g><g
         id="g114"><path
           d="m 13.5,74.07 h 750"
           style="fill:none;stroke:#000000;stroke-width:0.75;stroke-linecap:butt;stroke-linejoin:miter;stroke-miterlimit:4;stroke-dasharray:none;stroke-opacity:1"
           id="path116" /></g><g
         id="g118"><path
           d="m 13.5,470.07 h 750"
           style="fill:none;stroke:#000000;stroke-width:0.75;stroke-linecap:butt;stroke-linejoin:miter;stroke-miterlimit:4;stroke-dasharray:none;stroke-opacity:1"
           id="path120" /></g><g
         id="g122"><path
           d="m 13.5,526.32 h 750"
           style="fill:none;stroke:#000000;stroke-width:0.75;stroke-linecap:butt;stroke-linejoin:miter;stroke-miterlimit:4;stroke-dasharray:none;stroke-opacity:1"
           id="path124" /></g><g
         id="g126"><path
           d="m 13.5,695.82 h 750"
           style="fill:none;stroke:#000000;stroke-width:0.75;stroke-linecap:butt;stroke-linejoin:miter;stroke-miterlimit:4;stroke-dasharray:none;stroke-opacity:1"
           id="path128" /></g><g
         id="g130"><path
           d="m 13.5,724.32 h 750"
           style="fill:none;stroke:#000000;stroke-width:0.75;stroke-linecap:butt;stroke-linejoin:miter;stroke-miterlimit:4;stroke-dasharray:none;stroke-opacity:1"
           id="path132" /></g><g
         id="g134"><path
           d="m 13.5,413.82 h 750"
           style="fill:none;stroke:#000000;stroke-width:0.75;stroke-linecap:butt;stroke-linejoin:miter;stroke-miterlimit:4;stroke-dasharray:none;stroke-opacity:1"
           id="path136" /></g><g
         id="g138"><path
           d="m 13.5,131.07 h 750"
           style="fill:none;stroke:#000000;stroke-width:0.75;stroke-linecap:butt;stroke-linejoin:miter;stroke-miterlimit:4;stroke-dasharray:none;stroke-opacity:1"
           id="path140" /></g><g
         id="g142"><path
           d="m 13.5,611.07 h 750"
           style="fill:none;stroke:#000000;stroke-width:0.75;stroke-linecap:butt;stroke-linejoin:miter;stroke-miterlimit:4;stroke-dasharray:none;stroke-opacity:1"
           id="path144" /></g><g
         id="g146"><path
           d="m 13.5,356.82 h 750"
           style="fill:none;stroke:#000000;stroke-width:0.75;stroke-linecap:butt;stroke-linejoin:miter;stroke-miterlimit:4;stroke-dasharray:none;stroke-opacity:1"
           id="path148" /></g><g
         id="g150"><path
           d="m 13.5,102.57 h 750"
           style="fill:none;stroke:#000000;stroke-width:0.75;stroke-linecap:butt;stroke-linejoin:miter;stroke-miterlimit:4;stroke-dasharray:none;stroke-opacity:1"
           id="path152" /></g><g
         id="g154"><path
           d="m 13.5,639.57 h 750"
           style="fill:none;stroke:#000000;stroke-width:0.75;stroke-linecap:butt;stroke-linejoin:miter;stroke-miterlimit:4;stroke-dasharray:none;stroke-opacity:1"
           id="path156" /></g><g
         id="g158"><path
           d="m 13.5,668.07 h 750"
           style="fill:none;stroke:#000000;stroke-width:0.75;stroke-linecap:butt;stroke-linejoin:miter;stroke-miterlimit:4;stroke-dasharray:none;stroke-opacity:1"
           id="path160" /></g><g
         id="g162"><path
           d="m 13.5,554.82 h 750"
           style="fill:none;stroke:#000000;stroke-width:0.75;stroke-linecap:butt;stroke-linejoin:miter;stroke-miterlimit:4;stroke-dasharray:none;stroke-opacity:1"
           id="path164" /></g><g
         id="g166"><path
           d="m 13.5,215.82 h 750"
           style="fill:none;stroke:#000000;stroke-width:0.75;stroke-linecap:butt;stroke-linejoin:miter;stroke-miterlimit:4;stroke-dasharray:none;stroke-opacity:1"
           id="path168" /></g><g
         id="g170"><path
           d="m 13.5,328.32 h 750"
           style="fill:none;stroke:#000000;stroke-width:0.75;stroke-linecap:butt;stroke-linejoin:miter;stroke-miterlimit:4;stroke-dasharray:none;stroke-opacity:1"
           id="path172" /></g><g
         id="g174"><path
           d="m 13.5,272.07 h 750"
           style="fill:none;stroke:#000000;stroke-width:0.75;stroke-linecap:butt;stroke-linejoin:miter;stroke-miterlimit:4;stroke-dasharray:none;stroke-opacity:1"
           id="path176" /></g><g
         id="g178"><path
           d="m 13.5,187.32 h 750"
           style="fill:none;stroke:#000000;stroke-width:0.75;stroke-linecap:butt;stroke-linejoin:miter;stroke-miterlimit:4;stroke-dasharray:none;stroke-opacity:1"
           id="path180" /></g><g
         id="g182"><path
           d="m 13.5,583.32 h 750"
           style="fill:none;stroke:#000000;stroke-width:0.75;stroke-linecap:butt;stroke-linejoin:miter;stroke-miterlimit:4;stroke-dasharray:none;stroke-opacity:1"
           id="path184" /></g><g
         id="g186"><path
           d="m 163.5,43.32 v 742.5"
           style="fill:none;stroke:#000000;stroke-width:0.75;stroke-linecap:butt;stroke-linejoin:miter;stroke-miterlimit:4;stroke-dasharray:none;stroke-opacity:1"
           id="path188" /></g><path
         d="m 171,50.82 h 21 v 20.25 h -21 z"
         style="fill:#ff0000;fill-opacity:1;fill-rule:nonzero;stroke:none"
         id="path190" /><path
         d="M 192,50.82 H 354 V 71.07 H 192 Z"
         style="fill:#0000ff;fill-opacity:1;fill-rule:nonzero;stroke:none"
         id="path192" /><path
         d="m 363,248.07 h 39 v 20.25 h -39 z"
         style="fill:#ff0000;fill-opacity:1;fill-rule:nonzero;stroke:none"
         id="path194" /><path
         d="m 402,248.07 h 33 v 20.25 h -33 z"
         style="fill:#0000ff;fill-opacity:1;fill-rule:nonzero;stroke:none"
         id="path196" /><path
         d="m 363,446.07 h 42 v 20.25 h -42 z"
         style="fill:#ff0000;fill-opacity:1;fill-rule:nonzero;stroke:none"
         id="path198" /><path
         d="m 405,446.07 h 30 v 20.25 h -30 z"
         style="fill:#0000ff;fill-opacity:1;fill-rule:nonzero;stroke:none"
         id="path200" /><path
         d="m 366,757.32 h 39 v 20.25 h -39 z"
         style="fill:#ff0000;fill-opacity:1;fill-rule:nonzero;stroke:none"
         id="path202" /><path
         d="m 405,757.32 h 33 v 20.25 h -33 z"
         style="fill:#0000ff;fill-opacity:1;fill-rule:nonzero;stroke:none"
         id="path204" /><path
         d="m 366,163.32 h 72 v 20.25 h -72 z"
         style="fill:#ff0000;fill-opacity:1;fill-rule:nonzero;stroke:none"
         id="path206" /><path
         d="m 438,163.32 h 54 v 20.25 h -54 z"
         style="fill:#0000ff;fill-opacity:1;fill-rule:nonzero;stroke:none"
         id="path208" /><path
         d="m 369,389.82 h 69 v 20.25 h -69 z"
         style="fill:#ff0000;fill-opacity:1;fill-rule:nonzero;stroke:none"
         id="path210" /><path
         d="m 438,389.82 h 57 v 20.25 h -57 z"
         style="fill:#0000ff;fill-opacity:1;fill-rule:nonzero;stroke:none"
         id="path212" /><path
         d="m 369,305.07 h 69 v 20.25 h -69 z"
         style="fill:#ff0000;fill-opacity:1;fill-rule:nonzero;stroke:none"
         id="path214" /><path
         d="m 438,305.07 h 57 v 20.25 h -57 z"
         style="fill:#0000ff;fill-opacity:1;fill-rule:nonzero;stroke:none"
         id="path216" /><path
         d="m 372,503.07 h 66 v 20.25 h -66 z"
         style="fill:#ff0000;fill-opacity:1;fill-rule:nonzero;stroke:none"
         id="path218" /><path
         d="m 438,503.07 h 60 v 20.25 h -60 z"
         style="fill:#0000ff;fill-opacity:1;fill-rule:nonzero;stroke:none"
         id="path220" /><path
         d="m 375,78.57 h 66 v 20.25 h -66 z"
         style="fill:#ff0000;fill-opacity:1;fill-rule:nonzero;stroke:none"
         id="path222" /><path
         d="m 441,78.57 h 57 v 20.25 h -57 z"
         style="fill:#0000ff;fill-opacity:1;fill-rule:nonzero;stroke:none"
         id="path224" /><path
         d="m 375,474.57 h 66 v 20.25 h -66 z"
         style="fill:#ff0000;fill-opacity:1;fill-rule:nonzero;stroke:none"
         id="path226" /><path
         d="m 441,474.57 h 57 v 20.25 h -57 z"
         style="fill:#0000ff;fill-opacity:1;fill-rule:nonzero;stroke:none"
         id="path228" /><path
         d="m 378,530.82 h 63 v 20.25 h -63 z"
         style="fill:#ff0000;fill-opacity:1;fill-rule:nonzero;stroke:none"
         id="path230" /><path
         d="m 441,530.82 h 60 v 20.25 h -60 z"
         style="fill:#0000ff;fill-opacity:1;fill-rule:nonzero;stroke:none"
         id="path232" /><path
         d="m 378,700.32 h 63 v 20.25 h -63 z"
         style="fill:#ff0000;fill-opacity:1;fill-rule:nonzero;stroke:none"
         id="path234" /><path
         d="m 441,700.32 h 60 v 20.25 h -60 z"
         style="fill:#0000ff;fill-opacity:1;fill-rule:nonzero;stroke:none"
         id="path236" /><path
         d="m 381,728.82 h 60 v 20.25 h -60 z"
         style="fill:#ff0000;fill-opacity:1;fill-rule:nonzero;stroke:none"
         id="path238" /><path
         d="m 441,728.82 h 63 v 20.25 h -63 z"
         style="fill:#0000ff;fill-opacity:1;fill-rule:nonzero;stroke:none"
         id="path240" /><path
         d="m 381,418.32 h 63 v 20.25 h -63 z"
         style="fill:#ff0000;fill-opacity:1;fill-rule:nonzero;stroke:none"
         id="path242" /><path
         d="m 444,418.32 h 60 v 20.25 h -60 z"
         style="fill:#0000ff;fill-opacity:1;fill-rule:nonzero;stroke:none"
         id="path244" /><path
         d="m 384,135.57 h 60 v 20.25 h -60 z"
         style="fill:#ff0000;fill-opacity:1;fill-rule:nonzero;stroke:none"
         id="path246" /><path
         d="m 444,135.57 h 60 v 20.25 h -60 z"
         style="fill:#0000ff;fill-opacity:1;fill-rule:nonzero;stroke:none"
         id="path248" /><path
         d="m 387,615.57 h 57 v 20.25 h -57 z"
         style="fill:#ff0000;fill-opacity:1;fill-rule:nonzero;stroke:none"
         id="path250" /><path
         d="m 444,615.57 h 63 v 20.25 h -63 z"
         style="fill:#0000ff;fill-opacity:1;fill-rule:nonzero;stroke:none"
         id="path252" /><path
         d="m 387,361.32 h 60 v 20.25 h -60 z"
         style="fill:#ff0000;fill-opacity:1;fill-rule:nonzero;stroke:none"
         id="path254" /><path
         d="m 447,361.32 h 60 v 20.25 h -60 z"
         style="fill:#0000ff;fill-opacity:1;fill-rule:nonzero;stroke:none"
         id="path256" /><path
         d="m 411,107.07 h 12 v 20.25 h -12 z"
         style="fill:#ff0000;fill-opacity:1;fill-rule:nonzero;stroke:none"
         id="path258" /><path
         d="m 423,107.07 h 105 v 20.25 H 423 Z"
         style="fill:#0000ff;fill-opacity:1;fill-rule:nonzero;stroke:none"
         id="path260" /><path
         d="m 414,644.07 h 12 v 20.25 h -12 z"
         style="fill:#ff0000;fill-opacity:1;fill-rule:nonzero;stroke:none"
         id="path262" /><path
         d="m 426,644.07 h 75 v 20.25 h -75 z"
         style="fill:#0000ff;fill-opacity:1;fill-rule:nonzero;stroke:none"
         id="path264" /><path
         d="m 429,672.57 h 123 v 20.25 H 429 Z"
         style="fill:#0000ff;fill-opacity:1;fill-rule:nonzero;stroke:none"
         id="path266" /><path
         d="m 432,559.32 h 12 v 20.25 h -12 z"
         style="fill:#ff0000;fill-opacity:1;fill-rule:nonzero;stroke:none"
         id="path268" /><path
         d="m 444,559.32 h 105 v 20.25 H 444 Z"
         style="fill:#0000ff;fill-opacity:1;fill-rule:nonzero;stroke:none"
         id="path270" /><path
         d="m 504.75,220.32 h 12 v 20.25 h -12 z"
         style="fill:#ff0000;fill-opacity:1;fill-rule:nonzero;stroke:none"
         id="path272" /><path
         d="m 516.75,220.32 h 75 v 20.25 h -75 z"
         style="fill:#0000ff;fill-opacity:1;fill-rule:nonzero;stroke:none"
         id="path274" /><path
         d="m 528.75,332.82 h 15 v 20.25 h -15 z"
         style="fill:#ff0000;fill-opacity:1;fill-rule:nonzero;stroke:none"
         id="path276" /><path
         d="m 543.75,332.82 h 75 v 20.25 h -75 z"
         style="fill:#0000ff;fill-opacity:1;fill-rule:nonzero;stroke:none"
         id="path278" /><path
         d="m 552.75,276.57 h 12 v 20.25 h -12 z"
         style="fill:#ff0000;fill-opacity:1;fill-rule:nonzero;stroke:none"
         id="path280" /><path
         d="m 564.75,276.57 h 93 v 20.25 h -93 z"
         style="fill:#0000ff;fill-opacity:1;fill-rule:nonzero;stroke:none"
         id="path282" /><path
         d="m 618.75,191.82 h 15 v 20.25 h -15 z"
         style="fill:#ff0000;fill-opacity:1;fill-rule:nonzero;stroke:none"
         id="path284" /><path
         d="m 633.75,191.82 h 75 v 20.25 h -75 z"
         style="fill:#0000ff;fill-opacity:1;fill-rule:nonzero;stroke:none"
         id="path286" /><path
         d="m 657.75,587.82 h 12 v 20.25 h -12 z"
         style="fill:#ff0000;fill-opacity:1;fill-rule:nonzero;stroke:none"
         id="path288" /><path
         d="m 669.75,587.82 h 78 v 20.25 h -78 z"
         style="fill:#0000ff;fill-opacity:1;fill-rule:nonzero;stroke:none"
         id="path290" /><g
         id="g292"><path
           d="M 171,793.32 H 748.5"
           style="fill:none;stroke:#000000;stroke-width:0.75;stroke-linecap:butt;stroke-linejoin:miter;stroke-miterlimit:4;stroke-dasharray:none;stroke-opacity:1"
           id="path294" /></g><g
         id="g296"><path
           d="m 171,793.32 v 4.5"
           style="fill:none;stroke:#000000;stroke-width:0.75;stroke-linecap:butt;stroke-linejoin:miter;stroke-miterlimit:4;stroke-dasharray:none;stroke-opacity:1"
           id="path298" /></g><text
         transform="translate(168,808.31998)"
         style="font-variant:normal;font-weight:normal;font-size:15px;font-family:'Nimbus Sans';-inkscape-font-specification:NimbusSans-Regular;writing-mode:lr-tb;fill:#000000;fill-opacity:1;fill-rule:nonzero;stroke:none"
         id="text302"><tspan
           x="0"
           y="0"
           id="tspan300">0</tspan></text><g
         id="g304"><path
           d="m 228.75,793.32 v 4.5"
           style="fill:none;stroke:#000000;stroke-width:0.75;stroke-linecap:butt;stroke-linejoin:miter;stroke-miterlimit:4;stroke-dasharray:none;stroke-opacity:1"
           id="path306" /></g><text
         transform="translate(225.74998,808.31998)"
         style="font-variant:normal;font-weight:normal;font-size:15px;font-family:'Nimbus Sans';-inkscape-font-specification:NimbusSans-Regular;writing-mode:lr-tb;fill:#000000;fill-opacity:1;fill-rule:nonzero;stroke:none"
         id="text310"><tspan
           x="0 8.3400002"
           y="0"
           sodipodi:role="line"
           id="tspan308">19</tspan></text><g
         id="g312"><path
           d="m 286.5,793.32 v 4.5"
           style="fill:none;stroke:#000000;stroke-width:0.75;stroke-linecap:butt;stroke-linejoin:miter;stroke-miterlimit:4;stroke-dasharray:none;stroke-opacity:1"
           id="path314" /></g><text
         transform="translate(283.49998,808.31998)"
         style="font-variant:normal;font-weight:normal;font-size:15px;font-family:'Nimbus Sans';-inkscape-font-specification:NimbusSans-Regular;writing-mode:lr-tb;fill:#000000;fill-opacity:1;fill-rule:nonzero;stroke:none"
         id="text318"><tspan
           x="0 8.3400002"
           y="0"
           sodipodi:role="line"
           id="tspan316">38</tspan></text><g
         id="g320"><path
           d="m 344.25,793.32 v 4.5"
           style="fill:none;stroke:#000000;stroke-width:0.75;stroke-linecap:butt;stroke-linejoin:miter;stroke-miterlimit:4;stroke-dasharray:none;stroke-opacity:1"
           id="path322" /></g><text
         transform="translate(340.49998,808.31998)"
         style="font-variant:normal;font-weight:normal;font-size:15px;font-family:'Nimbus Sans';-inkscape-font-specification:NimbusSans-Regular;writing-mode:lr-tb;fill:#000000;fill-opacity:1;fill-rule:nonzero;stroke:none"
         id="text326"><tspan
           x="0 8.3400002"
           y="0"
           sodipodi:role="line"
           id="tspan324">57</tspan></text><g
         id="g328"><path
           d="m 402,793.32 v 4.5"
           style="fill:none;stroke:#000000;stroke-width:0.75;stroke-linecap:butt;stroke-linejoin:miter;stroke-miterlimit:4;stroke-dasharray:none;stroke-opacity:1"
           id="path330" /></g><text
         transform="translate(398.24998,808.31998)"
         style="font-variant:normal;font-weight:normal;font-size:15px;font-family:'Nimbus Sans';-inkscape-font-specification:NimbusSans-Regular;writing-mode:lr-tb;fill:#000000;fill-opacity:1;fill-rule:nonzero;stroke:none"
         id="text334"><tspan
           x="0 8.3400002"
           y="0"
           sodipodi:role="line"
           id="tspan332">76</tspan></text><g
         id="g336"><path
           d="m 459.75,793.32 v 4.5"
           style="fill:none;stroke:#000000;stroke-width:0.75;stroke-linecap:butt;stroke-linejoin:miter;stroke-miterlimit:4;stroke-dasharray:none;stroke-opacity:1"
           id="path338" /></g><text
         transform="translate(456.74998,808.31998)"
         style="font-variant:normal;font-weight:normal;font-size:15px;font-family:'Nimbus Sans';-inkscape-font-specification:NimbusSans-Regular;writing-mode:lr-tb;fill:#000000;fill-opacity:1;fill-rule:nonzero;stroke:none"
         id="text342"><tspan
           x="0 8.3400002"
           y="0"
           sodipodi:role="line"
           id="tspan340">96</tspan></text><g
         id="g344"><path
           d="m 517.5,793.32 v 4.5"
           style="fill:none;stroke:#000000;stroke-width:0.75;stroke-linecap:butt;stroke-linejoin:miter;stroke-miterlimit:4;stroke-dasharray:none;stroke-opacity:1"
           id="path346" /></g><text
         transform="translate(514.49998,808.31998)"
         style="font-variant:normal;font-weight:normal;font-size:15px;font-family:'Nimbus Sans';-inkscape-font-specification:NimbusSans-Regular;writing-mode:lr-tb;fill:#000000;fill-opacity:1;fill-rule:nonzero;stroke:none"
         id="text350"><tspan
           x="0 8.3400002 16.68"
           y="0"
           sodipodi:role="line"
           id="tspan348">115</tspan></text><g
         id="g352"><path
           d="m 575.25,793.32 v 4.5"
           style="fill:none;stroke:#000000;stroke-width:0.75;stroke-linecap:butt;stroke-linejoin:miter;stroke-miterlimit:4;stroke-dasharray:none;stroke-opacity:1"
           id="path354" /></g><text
         transform="translate(572.24998,808.31998)"
         style="font-variant:normal;font-weight:normal;font-size:15px;font-family:'Nimbus Sans';-inkscape-font-specification:NimbusSans-Regular;writing-mode:lr-tb;fill:#000000;fill-opacity:1;fill-rule:nonzero;stroke:none"
         id="text358"><tspan
           x="0 8.3400002 16.68"
           y="0"
           sodipodi:role="line"
           id="tspan356">134</tspan></text><g
         id="g360"><path
           d="m 633,793.32 v 4.5"
           style="fill:none;stroke:#000000;stroke-width:0.75;stroke-linecap:butt;stroke-linejoin:miter;stroke-miterlimit:4;stroke-dasharray:none;stroke-opacity:1"
           id="path362" /></g><text
         transform="translate(629.24996,808.31998)"
         style="font-variant:normal;font-weight:normal;font-size:15px;font-family:'Nimbus Sans';-inkscape-font-specification:NimbusSans-Regular;writing-mode:lr-tb;fill:#000000;fill-opacity:1;fill-rule:nonzero;stroke:none"
         id="text366"><tspan
           x="0 8.3400002 16.68"
           y="0"
           sodipodi:role="line"
           id="tspan364">153</tspan></text><g
         id="g368"><path
           d="m 690.75,793.32 v 4.5"
           style="fill:none;stroke:#000000;stroke-width:0.75;stroke-linecap:butt;stroke-linejoin:miter;stroke-miterlimit:4;stroke-dasharray:none;stroke-opacity:1"
           id="path370" /></g><text
         transform="translate(686.99996,808.31998)"
         style="font-variant:normal;font-weight:normal;font-size:15px;font-family:'Nimbus Sans';-inkscape-font-specification:NimbusSans-Regular;writing-mode:lr-tb;fill:#000000;fill-opacity:1;fill-rule:nonzero;stroke:none"
         id="text374"><tspan
           x="0 8.3400002 16.68"
           y="0"
           sodipodi:role="line"
           id="tspan372">172</tspan></text><text
         transform="translate(362.99998,830.81998)"
         style="font-variant:normal;font-weight:normal;font-size:18px;font-family:'Nimbus Sans';-inkscape-font-specification:NimbusSans-Regular;writing-mode:lr-tb;fill:#000000;fill-opacity:1;fill-rule:nonzero;stroke:none"
         id="text378"><tspan
           x="0 12.006 20.52 30.528 39.528 49.535999 54.467999 58.464001 68.472 78.480003 83.484001 88.398003 92.393997 107.388 117.396 122.4 128.394 137.394"
           y="0"
           sodipodi:role="line"
           id="tspan376">Execution time (s)</tspan></text><text
         transform="translate(21.023143,38.816482)"
         style="font-variant:normal;font-weight:normal;font-size:12px;font-family:'DejaVu Sans';-inkscape-font-specification:DejaVuSans;writing-mode:lr-tb;fill:#000000;fill-opacity:1;fill-rule:nonzero;stroke:none"
         id="text382"><tspan
           x="0 5.316 12.66 18.9 25.848 29.615999 38.591999 45.936001 57.624001 65.003998"
           y="0"
           sodipodi:role="line"
           id="tspan380">Task Names</tspan></text></g><text
       xml:space="preserve"
       transform="matrix(0.75000002,0,0,0.75000002,532.00155,-120.09893)"
       id="text1792"
       style="font-style:normal;font-weight:normal;font-size:18.6667px;line-height:1.25;font-family:sans-serif;white-space:pre;shape-inside:url(#rect1794);fill:#000000;fill-opacity:1;stroke:none"><tspan
         x="-233.00781"
         y="248.69534"
         id="tspan540">darwin</tspan></text><text
       xml:space="preserve"
       transform="matrix(0.75000002,0,0,0.75000002,675.60207,-92.738953)"
       id="text7778"
       style="font-style:normal;font-weight:normal;font-size:18.6667px;line-height:1.25;font-family:sans-serif;white-space:pre;shape-inside:url(#rect7780);fill:#000000;fill-opacity:1;stroke:none"><tspan
         x="-233.00781"
         y="248.69534"
         id="tspan542">darwin</tspan></text><text
       xml:space="preserve"
       transform="matrix(0.75000002,0,0,0.75000002,707.19412,-66.320884)"
       id="text7782"
       style="font-style:normal;font-weight:normal;font-size:18.6667px;line-height:1.25;font-family:sans-serif;white-space:pre;shape-inside:url(#rect7784);fill:#000000;fill-opacity:1;stroke:none"><tspan
         x="-233.00781"
         y="248.69534"
         id="tspan544">google-2</tspan></text><text
       xml:space="preserve"
       transform="matrix(0.75000002,0,0,0.75000002,682.55719,-35.350255)"
       id="text10760"
       style="font-style:normal;font-weight:normal;font-size:18.6667px;line-height:1.25;font-family:sans-serif;white-space:pre;shape-inside:url(#rect10762);fill:#000000;fill-opacity:1;stroke:none"><tspan
         x="-233.00781"
         y="248.69534"
         id="tspan546">darwin</tspan></text><text
       xml:space="preserve"
       transform="matrix(0.75000002,0,0,0.75000002,668.16399,-8.3025997)"
       id="text10764"
       style="font-style:normal;font-weight:normal;font-size:18.6667px;line-height:1.25;font-family:sans-serif;white-space:pre;shape-inside:url(#rect10766);fill:#000000;fill-opacity:1;stroke:none"><tspan
         x="-233.00781"
         y="248.69534"
         id="tspan548">darwin</tspan></text><text
       xml:space="preserve"
       transform="matrix(0.75000002,0,0,0.75000002,730.12768,20.239801)"
       id="text10768"
       style="font-style:normal;font-weight:normal;font-size:18.6667px;line-height:1.25;font-family:sans-serif;white-space:pre;shape-inside:url(#rect10770);fill:#000000;fill-opacity:1;stroke:none"><tspan
         x="-233.00781"
         y="248.69534"
         id="tspan550">google-2</tspan></text><text
       xml:space="preserve"
       transform="matrix(0.75000002,0,0,0.75000002,768.17737,47.637838)"
       id="text10772"
       style="font-style:normal;font-weight:normal;font-size:18.6667px;line-height:1.25;font-family:sans-serif;white-space:pre;shape-inside:url(#rect10774);fill:#000000;fill-opacity:1;stroke:none"><tspan
         x="-233.00781"
         y="248.69534"
         id="tspan552">google-0</tspan></text><text
       xml:space="preserve"
       transform="matrix(0.75000002,0,0,0.75000002,613.03729,76.985758)"
       id="text13554"
       style="font-style:normal;font-weight:normal;font-size:18.6667px;line-height:1.25;font-family:sans-serif;white-space:pre;shape-inside:url(#rect13556);fill:#000000;fill-opacity:1;stroke:none"><tspan
         x="-233.00781"
         y="248.69534"
         id="tspan554">darwin</tspan></text><text
       xml:space="preserve"
       transform="matrix(0.75000002,0,0,0.75000002,835.35051,104.12297)"
       id="text15252"
       style="font-style:normal;font-weight:normal;font-size:18.6667px;line-height:1.25;font-family:sans-serif;white-space:pre;shape-inside:url(#rect15254);fill:#000000;fill-opacity:1;stroke:none"><tspan
         x="-233.00781"
         y="248.69534"
         id="tspan556">google-3</tspan></text><text
       xml:space="preserve"
       transform="matrix(0.75000002,0,0,0.75000002,672.02586,132.24304)"
       id="text16636"
       style="font-style:normal;font-weight:normal;font-size:18.6667px;line-height:1.25;font-family:sans-serif;white-space:pre;shape-inside:url(#rect16638);fill:#000000;fill-opacity:1;stroke:none"><tspan
         x="-233.00781"
         y="248.69534"
         id="tspan558">darwin</tspan></text><text
       xml:space="preserve"
       transform="matrix(0.75000002,0,0,0.75000002,796.04954,160.12252)"
       id="text16640"
       style="font-style:normal;font-weight:normal;font-size:18.6667px;line-height:1.25;font-family:sans-serif;white-space:pre;shape-inside:url(#rect16642);fill:#000000;fill-opacity:1;stroke:none"><tspan
         x="-233.00781"
         y="248.69534"
         id="tspan560">google-2</tspan></text><text
       xml:space="preserve"
       transform="matrix(0.75000002,0,0,0.75000002,684.46686,190.054)"
       id="text16644"
       style="font-style:normal;font-weight:normal;font-size:18.6667px;line-height:1.25;font-family:sans-serif;white-space:pre;shape-inside:url(#rect16646);fill:#000000;fill-opacity:1;stroke:none"><tspan
         x="-233.00781"
         y="248.69534"
         id="tspan562">darwin</tspan></text><text
       xml:space="preserve"
       transform="matrix(0.75000002,0,0,0.75000002,672.82629,218.00593)"
       id="text16648"
       style="font-style:normal;font-weight:normal;font-size:18.6667px;line-height:1.25;font-family:sans-serif;white-space:pre;shape-inside:url(#rect16650);fill:#000000;fill-opacity:1;stroke:none"><tspan
         x="-233.00781"
         y="248.69534"
         id="tspan564">darwin</tspan></text><text
       xml:space="preserve"
       transform="matrix(0.75000002,0,0,0.75000002,681.44191,246.1292)"
       id="text16652"
       style="font-style:normal;font-weight:normal;font-size:18.6667px;line-height:1.25;font-family:sans-serif;white-space:pre;shape-inside:url(#rect16654);fill:#000000;fill-opacity:1;stroke:none"><tspan
         x="-233.00781"
         y="248.69534"
         id="tspan566">darwin</tspan></text><text
       xml:space="preserve"
       transform="matrix(0.75000002,0,0,0.75000002,612.35762,274.6259)"
       id="text16656"
       style="font-style:normal;font-weight:normal;font-size:18.6667px;line-height:1.25;font-family:sans-serif;white-space:pre;shape-inside:url(#rect16658);fill:#000000;fill-opacity:1;stroke:none"><tspan
         x="-233.00781"
         y="248.69534"
         id="tspan568">darwin</tspan></text><text
       xml:space="preserve"
       transform="matrix(0.75000002,0,0,0.75000002,675.59764,303.08912)"
       id="text16660"
       style="font-style:normal;font-weight:normal;font-size:18.6667px;line-height:1.25;font-family:sans-serif;white-space:pre;shape-inside:url(#rect16662);fill:#000000;fill-opacity:1;stroke:none"><tspan
         x="-233.00781"
         y="248.69534"
         id="tspan570">darwin</tspan></text><text
       xml:space="preserve"
       transform="matrix(0.75000002,0,0,0.75000002,675.05228,330.7028)"
       id="text16664"
       style="font-style:normal;font-weight:normal;font-size:18.6667px;line-height:1.25;font-family:sans-serif;white-space:pre;shape-inside:url(#rect16666);fill:#000000;fill-opacity:1;stroke:none"><tspan
         x="-233.00781"
         y="248.69534"
         id="tspan572">darwin</tspan></text><text
       xml:space="preserve"
       transform="matrix(0.75000002,0,0,0.75000002,676.82374,358.71937)"
       id="text16668"
       style="font-style:normal;font-weight:normal;font-size:18.6667px;line-height:1.25;font-family:sans-serif;white-space:pre;shape-inside:url(#rect16670);fill:#000000;fill-opacity:1;stroke:none"><tspan
         x="-233.00781"
         y="248.69534"
         id="tspan574">darwin</tspan></text><text
       xml:space="preserve"
       transform="matrix(0.75000002,0,0,0.75000002,725.66283,386.54151)"
       id="text16672"
       style="font-style:normal;font-weight:normal;font-size:18.6667px;line-height:1.25;font-family:sans-serif;white-space:pre;shape-inside:url(#rect16674);fill:#000000;fill-opacity:1;stroke:none"><tspan
         x="-233.00781"
         y="248.69534"
         id="tspan576">google-1</tspan></text><text
       xml:space="preserve"
       transform="matrix(0.75000002,0,0,0.75000002,768.38873,415.96612)"
       id="text26104"
       style="font-style:normal;font-weight:normal;font-size:18.6667px;line-height:1.25;font-family:sans-serif;white-space:pre;shape-inside:url(#rect26106);fill:#000000;fill-opacity:1;stroke:none"><tspan
         x="-233.00781"
         y="248.69534"
         id="tspan578">google-3</tspan></text><text
       xml:space="preserve"
       transform="matrix(0.75000002,0,0,0.75000002,686.15403,443.77894)"
       id="text27962"
       style="font-style:normal;font-weight:normal;font-size:18.6667px;line-height:1.25;font-family:sans-serif;white-space:pre;shape-inside:url(#rect27964);fill:#000000;fill-opacity:1;stroke:none"><tspan
         x="-233.00781"
         y="248.69534"
         id="tspan580">darwin</tspan></text><text
       xml:space="preserve"
       transform="matrix(0.75000002,0,0,0.75000002,678.38445,471.12497)"
       id="text27966"
       style="font-style:normal;font-weight:normal;font-size:18.6667px;line-height:1.25;font-family:sans-serif;white-space:pre;shape-inside:url(#rect27968);fill:#000000;fill-opacity:1;stroke:none"><tspan
         x="-233.00781"
         y="248.69534"
         id="tspan582">google-0</tspan></text><text
       xml:space="preserve"
       transform="matrix(0.75000002,0,0,0.75000002,728.75989,500.12973)"
       id="text27970"
       style="font-style:normal;font-weight:normal;font-size:18.6667px;line-height:1.25;font-family:sans-serif;white-space:pre;shape-inside:url(#rect27972);fill:#000000;fill-opacity:1;stroke:none"><tspan
         x="-233.00781"
         y="248.69534"
         id="tspan584">google-3</tspan></text><text
       xml:space="preserve"
       transform="matrix(0.75000002,0,0,0.75000002,678.23473,529.38565)"
       id="text27974"
       style="font-style:normal;font-weight:normal;font-size:18.6667px;line-height:1.25;font-family:sans-serif;white-space:pre;shape-inside:url(#rect27976);fill:#000000;fill-opacity:1;stroke:none"><tspan
         x="-233.00781"
         y="248.69534"
         id="tspan586">darwin</tspan></text><text
       xml:space="preserve"
       transform="matrix(0.75000002,0,0,0.75000002,681.22038,557.14337)"
       id="text27982"
       style="font-style:normal;font-weight:normal;font-size:18.6667px;line-height:1.25;font-family:sans-serif;white-space:pre;shape-inside:url(#rect27984);fill:#000000;fill-opacity:1;stroke:none"><tspan
         x="-233.00781"
         y="248.69534"
         id="tspan588">darwin</tspan></text><text
       xml:space="preserve"
       transform="matrix(0.75000002,0,0,0.75000002,615.40242,585.63721)"
       id="text27986"
       style="font-style:normal;font-weight:normal;font-size:18.6667px;line-height:1.25;font-family:sans-serif;white-space:pre;shape-inside:url(#rect27988);fill:#000000;fill-opacity:1;stroke:none"><tspan
         x="-233.00781"
         y="248.69534"
         id="tspan590">darwin</tspan></text></g></svg>
