<svg xmlns="http://www.w3.org/2000/svg" width="800" height="1200">
<g transform="None">
<text x="200" y="30" style="font-size:20pt;">Four Nodes - ChameleonCloud + Google</text>
<g transform="translate(120 1120)">
<text x="0" y="20" style="">PENDING</text>
<rect x="84" y="0" width="40" height="40" fill="#ff0000">
</rect>
<text x="150" y="20" style="">RUNNING</text>
<rect x="234" y="0" width="40" height="40" fill="#0000ff">
</rect>
</g>
<g transform="translate(0 50)">
<text x="10" y="23" style="">makeblastdb</text>
<text x="10" y="928" style="">task-NC_018814-fasta</text>
<text x="10" y="61" style="">task-NC_009057-fasta</text>
<text x="10" y="476" style="">task-NC_010205-fasta</text>
<text x="10" y="99" style="">task-NC_009058-fasta</text>
<text x="10" y="890" style="">task-NC_013750-fasta</text>
<text x="10" y="777" style="">task-NC_013564-fasta</text>
<text x="10" y="815" style="">task-NC_013577-fasta</text>
<text x="10" y="325" style="">task-NC_009065-fasta</text>
<text x="10" y="966" style="">task-NC_018815-fasta</text>
<text x="10" y="513" style="">task-NC_011168-fasta</text>
<text x="10" y="438" style="">task-NC_009459-fasta</text>
<text x="10" y="287" style="">task-NC_009064-fasta</text>
<text x="10" y="400" style="">task-NC_009067-fasta</text>
<text x="10" y="626" style="">task-NC_011171-fasta</text>
<text x="10" y="853" style="">task-NC_013663-fasta</text>
<text x="10" y="664" style="">task-NC_011177-fasta</text>
<text x="10" y="174" style="">task-NC_009060-fasta</text>
<text x="10" y="136" style="">task-NC_009059-fasta</text>
<text x="10" y="740" style="">task-NC_012055-fasta</text>
<text x="10" y="250" style="">task-NC_009063-fasta</text>
<text x="10" y="551" style="">task-NC_011169-fasta</text>
<text x="10" y="702" style="">task-NC_011179-fasta</text>
<text x="10" y="589" style="">task-NC_011170-fasta</text>
<text x="10" y="212" style="">task-NC_009062-fasta</text>
<text x="10" y="363" style="">task-NC_009066-fasta</text>
<g transform="translate(200 0)">
<rect x="10" y="10" width="0" height="27" fill="#ff0000">
</rect>
<rect x="10" y="10" width="33" height="27" fill="#0000ff">
</rect>
<rect x="45" y="914" width="0" height="27" fill="#ff0000">
</rect>
<rect x="45" y="914" width="8" height="27" fill="#0000ff">
</rect>
<rect x="466" y="47" width="0" height="27" fill="#ff0000">
</rect>
<rect x="466" y="47" width="11" height="27" fill="#0000ff">
</rect>
<rect x="470" y="462" width="0" height="27" fill="#ff0000">
</rect>
<rect x="470" y="462" width="10" height="27" fill="#0000ff">
</rect>
<rect x="480" y="85" width="0" height="27" fill="#ff0000">
</rect>
<rect x="480" y="85" width="11" height="27" fill="#0000ff">
</rect>
<rect x="492" y="876" width="0" height="27" fill="#ff0000">
</rect>
<rect x="493" y="876" width="8" height="27" fill="#0000ff">
</rect>
<rect x="494" y="763" width="0" height="27" fill="#ff0000">
</rect>
<rect x="494" y="763" width="11" height="27" fill="#0000ff">
</rect>
<rect x="494" y="801" width="0" height="27" fill="#ff0000">
</rect>
<rect x="494" y="801" width="8" height="27" fill="#0000ff">
</rect>
<rect x="495" y="311" width="0" height="27" fill="#ff0000">
</rect>
<rect x="495" y="311" width="11" height="27" fill="#0000ff">
</rect>
<rect x="507" y="952" width="0" height="27" fill="#ff0000">
</rect>
<rect x="508" y="952" width="8" height="27" fill="#0000ff">
</rect>
<rect x="509" y="500" width="0" height="27" fill="#ff0000">
</rect>
<rect x="509" y="500" width="9" height="27" fill="#0000ff">
</rect>
<rect x="509" y="424" width="0" height="27" fill="#ff0000">
</rect>
<rect x="509" y="424" width="8" height="27" fill="#0000ff">
</rect>
<rect x="509" y="273" width="0" height="27" fill="#ff0000">
</rect>
<rect x="509" y="273" width="11" height="27" fill="#0000ff">
</rect>
<rect x="522" y="386" width="0" height="27" fill="#ff0000">
</rect>
<rect x="522" y="386" width="8" height="27" fill="#0000ff">
</rect>
<rect x="524" y="613" width="0" height="27" fill="#ff0000">
</rect>
<rect x="524" y="613" width="11" height="27" fill="#0000ff">
</rect>
<rect x="524" y="839" width="0" height="27" fill="#ff0000">
</rect>
<rect x="524" y="839" width="10" height="27" fill="#0000ff">
</rect>
<rect x="524" y="650" width="0" height="27" fill="#ff0000">
</rect>
<rect x="524" y="650" width="10" height="27" fill="#0000ff">
</rect>
<rect x="537" y="160" width="0" height="27" fill="#ff0000">
</rect>
<rect x="537" y="160" width="16" height="27" fill="#0000ff">
</rect>
<rect x="537" y="123" width="0" height="27" fill="#ff0000">
</rect>
<rect x="537" y="123" width="8" height="27" fill="#0000ff">
</rect>
<rect x="537" y="726" width="0" height="27" fill="#ff0000">
</rect>
<rect x="537" y="726" width="10" height="27" fill="#0000ff">
</rect>
<rect x="538" y="236" width="0" height="27" fill="#ff0000">
</rect>
<rect x="539" y="236" width="9" height="27" fill="#0000ff">
</rect>
<rect x="554" y="537" width="0" height="27" fill="#ff0000">
</rect>
<rect x="554" y="537" width="8" height="27" fill="#0000ff">
</rect>
<rect x="555" y="688" width="0" height="27" fill="#ff0000">
</rect>
<rect x="555" y="688" width="9" height="27" fill="#0000ff">
</rect>
<rect x="556" y="575" width="0" height="27" fill="#ff0000">
</rect>
<rect x="556" y="575" width="14" height="27" fill="#0000ff">
</rect>
<rect x="556" y="198" width="0" height="27" fill="#ff0000">
</rect>
<rect x="556" y="198" width="10" height="27" fill="#0000ff">
</rect>
<rect x="571" y="349" width="0" height="27" fill="#ff0000">
</rect>
<rect x="571" y="349" width="8" height="27" fill="#0000ff">
</rect>
<g transform="translate(0 1000)">
<path d="M10,0 L580,0" stroke="#000000"></path>
<path d="M10.0,0 L10.0,6" stroke="#000000"></path><text x="6" y="20" style="font-size: 10pt">0</text>
<path d="M67.00000003555228,0 L67.00000003555228,6" stroke="#000000"></path><text x="63" y="20" style="font-size: 10pt">152</text>
<path d="M123.99999998222385,0 L123.99999998222385,6" stroke="#000000"></path><text x="119" y="20" style="font-size: 10pt">305</text>
<path d="M181.00000001777613,0 L181.00000001777613,6" stroke="#000000"></path><text x="177" y="20" style="font-size: 10pt">458</text>
<path d="M237.9999999644477,0 L237.9999999644477,6" stroke="#000000"></path><text x="233" y="20" style="font-size: 10pt">611</text>
<path d="M295.0,0 L295.0,6" stroke="#000000"></path><text x="291" y="20" style="font-size: 10pt">764</text>
<path d="M352.00000003555226,0 L352.00000003555226,6" stroke="#000000"></path><text x="348" y="20" style="font-size: 10pt">917</text>
<path d="M408.99999998222387,0 L408.99999998222387,6" stroke="#000000"></path><text x="404" y="20" style="font-size: 10pt">1070</text>
<path d="M466.00000001777613,0 L466.00000001777613,6" stroke="#000000"></path><text x="462" y="20" style="font-size: 10pt">1223</text>
<path d="M522.9999999644477,0 L522.9999999644477,6" stroke="#000000"></path><text x="518" y="20" style="font-size: 10pt">1376</text>
<text x="200" y="40" style="">Execution time (s)</text>
</g>
</g>
</g>
</g>
</svg>

