<svg xmlns="http://www.w3.org/2000/svg" width="800" height="1200">
<g transform="None">
<text x="200" y="30" style="font-size:20pt;">ChameleonCloud</text>
<g transform="translate(120 1120)">
<text x="0" y="20" style="">PENDING</text>
<rect x="84" y="0" width="40" height="40" fill="#ff0000">
</rect>
<text x="150" y="20" style="">RUNNING</text>
<rect x="234" y="0" width="40" height="40" fill="#0000ff">
</rect>
</g>
<g transform="translate(0 50)">
<text x="10" y="23" style="">makeblastdb</text>
<text x="10" y="513" style="">task-NC_011168-fasta</text>
<text x="10" y="61" style="">task-NC_009057-fasta</text>
<text x="10" y="325" style="">task-NC_009065-fasta</text>
<text x="10" y="363" style="">task-NC_009066-fasta</text>
<text x="10" y="400" style="">task-NC_009067-fasta</text>
<text x="10" y="212" style="">task-NC_009062-fasta</text>
<text x="10" y="136" style="">task-NC_009059-fasta</text>
<text x="10" y="551" style="">task-NC_011169-fasta</text>
<text x="10" y="250" style="">task-NC_009063-fasta</text>
<text x="10" y="438" style="">task-NC_009459-fasta</text>
<text x="10" y="589" style="">task-NC_011170-fasta</text>
<text x="10" y="890" style="">task-NC_013750-fasta</text>
<text x="10" y="777" style="">task-NC_013564-fasta</text>
<text x="10" y="702" style="">task-NC_011179-fasta</text>
<text x="10" y="664" style="">task-NC_011177-fasta</text>
<text x="10" y="815" style="">task-NC_013577-fasta</text>
<text x="10" y="853" style="">task-NC_013663-fasta</text>
<text x="10" y="476" style="">task-NC_010205-fasta</text>
<text x="10" y="99" style="">task-NC_009058-fasta</text>
<text x="10" y="740" style="">task-NC_012055-fasta</text>
<text x="10" y="174" style="">task-NC_009060-fasta</text>
<text x="10" y="928" style="">task-NC_018814-fasta</text>
<text x="10" y="287" style="">task-NC_009064-fasta</text>
<text x="10" y="626" style="">task-NC_011171-fasta</text>
<text x="10" y="966" style="">task-NC_018815-fasta</text>
<g transform="translate(200 0)">
<rect x="10" y="10" width="0" height="27" fill="#ff0000">
</rect>
<rect x="10" y="10" width="37" height="27" fill="#0000ff">
</rect>
<rect x="49" y="500" width="0" height="27" fill="#ff0000">
</rect>
<rect x="49" y="500" width="11" height="27" fill="#0000ff">
</rect>
<rect x="63" y="47" width="0" height="27" fill="#ff0000">
</rect>
<rect x="63" y="47" width="21" height="27" fill="#0000ff">
</rect>
<rect x="87" y="311" width="0" height="27" fill="#ff0000">
</rect>
<rect x="87" y="311" width="18" height="27" fill="#0000ff">
</rect>
<rect x="109" y="349" width="0" height="27" fill="#ff0000">
</rect>
<rect x="109" y="349" width="21" height="27" fill="#0000ff">
</rect>
<rect x="132" y="386" width="0" height="27" fill="#ff0000">
</rect>
<rect x="132" y="386" width="18" height="27" fill="#0000ff">
</rect>
<rect x="154" y="198" width="0" height="27" fill="#ff0000">
</rect>
<rect x="154" y="198" width="21" height="27" fill="#0000ff">
</rect>
<rect x="178" y="123" width="0" height="27" fill="#ff0000">
</rect>
<rect x="178" y="123" width="18" height="27" fill="#0000ff">
</rect>
<rect x="200" y="537" width="0" height="27" fill="#ff0000">
</rect>
<rect x="200" y="537" width="18" height="27" fill="#0000ff">
</rect>
<rect x="221" y="236" width="0" height="27" fill="#ff0000">
</rect>
<rect x="221" y="236" width="18" height="27" fill="#0000ff">
</rect>
<rect x="243" y="424" width="0" height="27" fill="#ff0000">
</rect>
<rect x="243" y="424" width="21" height="27" fill="#0000ff">
</rect>
<rect x="267" y="575" width="0" height="27" fill="#ff0000">
</rect>
<rect x="267" y="575" width="18" height="27" fill="#0000ff">
</rect>
<rect x="288" y="876" width="0" height="27" fill="#ff0000">
</rect>
<rect x="288" y="876" width="18" height="27" fill="#0000ff">
</rect>
<rect x="310" y="763" width="0" height="27" fill="#ff0000">
</rect>
<rect x="310" y="763" width="18" height="27" fill="#0000ff">
</rect>
<rect x="331" y="688" width="0" height="27" fill="#ff0000">
</rect>
<rect x="331" y="688" width="18" height="27" fill="#0000ff">
</rect>
<rect x="353" y="650" width="0" height="27" fill="#ff0000">
</rect>
<rect x="353" y="650" width="21" height="27" fill="#0000ff">
</rect>
<rect x="377" y="801" width="0" height="27" fill="#ff0000">
</rect>
<rect x="377" y="801" width="18" height="27" fill="#0000ff">
</rect>
<rect x="398" y="839" width="0" height="27" fill="#ff0000">
</rect>
<rect x="398" y="839" width="18" height="27" fill="#0000ff">
</rect>
<rect x="420" y="462" width="0" height="27" fill="#ff0000">
</rect>
<rect x="420" y="462" width="18" height="27" fill="#0000ff">
</rect>
<rect x="441" y="85" width="0" height="27" fill="#ff0000">
</rect>
<rect x="441" y="85" width="18" height="27" fill="#0000ff">
</rect>
<rect x="463" y="726" width="0" height="27" fill="#ff0000">
</rect>
<rect x="463" y="726" width="16" height="27" fill="#0000ff">
</rect>
<rect x="482" y="160" width="0" height="27" fill="#ff0000">
</rect>
<rect x="482" y="160" width="23" height="27" fill="#0000ff">
</rect>
<rect x="508" y="914" width="0" height="27" fill="#ff0000">
</rect>
<rect x="508" y="914" width="18" height="27" fill="#0000ff">
</rect>
<rect x="530" y="273" width="0" height="27" fill="#ff0000">
</rect>
<rect x="530" y="273" width="16" height="27" fill="#0000ff">
</rect>
<rect x="549" y="613" width="0" height="27" fill="#ff0000">
</rect>
<rect x="549" y="613" width="16" height="27" fill="#0000ff">
</rect>
<rect x="568" y="952" width="0" height="27" fill="#ff0000">
</rect>
<rect x="568" y="952" width="11" height="27" fill="#0000ff">
</rect>
<g transform="translate(0 1000)">
<path d="M10,0 L580,0" stroke="#000000"></path>
<path d="M10.0,0 L10.0,6" stroke="#000000"></path><text x="6" y="20" style="font-size: 10pt">0</text>
<path d="M66.99999995435815,0 L66.99999995435815,6" stroke="#000000"></path><text x="62" y="20" style="font-size: 10pt">119</text>
<path d="M124.00000002282093,0 L124.00000002282093,6" stroke="#000000"></path><text x="120" y="20" style="font-size: 10pt">238</text>
<path d="M180.99999997717907,0 L180.99999997717907,6" stroke="#000000"></path><text x="176" y="20" style="font-size: 10pt">357</text>
<path d="M238.00000004564185,0 L238.00000004564185,6" stroke="#000000"></path><text x="234" y="20" style="font-size: 10pt">476</text>
<path d="M295.0,0 L295.0,6" stroke="#000000"></path><text x="291" y="20" style="font-size: 10pt">595</text>
<path d="M351.99999995435815,0 L351.99999995435815,6" stroke="#000000"></path><text x="347" y="20" style="font-size: 10pt">714</text>
<path d="M409.0000000228209,0 L409.0000000228209,6" stroke="#000000"></path><text x="405" y="20" style="font-size: 10pt">833</text>
<path d="M465.9999999771791,0 L465.9999999771791,6" stroke="#000000"></path><text x="461" y="20" style="font-size: 10pt">952</text>
<path d="M523.0000000456419,0 L523.0000000456419,6" stroke="#000000"></path><text x="519" y="20" style="font-size: 10pt">1071</text>
<text x="200" y="40" style="">Execution time (s)</text>
</g>
</g>
</g>
</g>
</svg>

