<?xml version="1.0" encoding="UTF-8" standalone="no"?>
<svg
   xmlns:dc="http://purl.org/dc/elements/1.1/"
   xmlns:cc="http://creativecommons.org/ns#"
   xmlns:rdf="http://www.w3.org/1999/02/22-rdf-syntax-ns#"
   xmlns:svg="http://www.w3.org/2000/svg"
   xmlns="http://www.w3.org/2000/svg"
   xmlns:sodipodi="http://sodipodi.sourceforge.net/DTD/sodipodi-0.dtd"
   xmlns:inkscape="http://www.inkscape.org/namespaces/inkscape"
   width="802.59961"
   height="306.284"
   version="1.1"
   id="svg212"
   sodipodi:docname="workflow-comparison-aligned.svg"
   inkscape:version="1.0.2 (e86c870879, 2021-01-15, custom)">
  <metadata
     id="metadata218">
    <rdf:RDF>
      <cc:Work
         rdf:about="">
        <dc:format>image/svg+xml</dc:format>
        <dc:type
           rdf:resource="http://purl.org/dc/dcmitype/StillImage" />
        <dc:title></dc:title>
      </cc:Work>
    </rdf:RDF>
  </metadata>
  <defs
     id="defs216" />
  <sodipodi:namedview
     pagecolor="#ffffff"
     bordercolor="#666666"
     borderopacity="1"
     objecttolerance="10"
     gridtolerance="10"
     guidetolerance="10"
     inkscape:pageopacity="0"
     inkscape:pageshadow="2"
     inkscape:window-width="1920"
     inkscape:window-height="1009"
     id="namedview214"
     showgrid="false"
     fit-margin-top="20"
     fit-margin-left="20"
     fit-margin-right="20"
     fit-margin-bottom="20"
     inkscape:zoom="2.8284272"
     inkscape:cx="268.78934"
     inkscape:cy="173.54059"
     inkscape:window-x="0"
     inkscape:window-y="0"
     inkscape:window-maximized="1"
     inkscape:current-layer="g202"
     inkscape:document-rotation="0"
     showguides="true"
     inkscape:guide-bbox="true">
    <sodipodi:guide
       position="205.76807,188.90427"
       orientation="1,0"
       id="guide944" />
  </sodipodi:namedview>
  <g
     transform="translate(0,47.784009)"
     id="g208">
    <g
       transform="translate(20,20)"
       id="g66">
      <g
         transform="translate(100)"
         id="g56">
        <rect
           x="100"
           y="0"
           width="23"
           height="24"
           id="rect2" />
        <rect
           x="126"
           y="0"
           width="7"
           height="24"
           id="rect4" />
        <rect
           x="137"
           y="0"
           width="9"
           height="24"
           id="rect6" />
        <rect
           x="150"
           y="0"
           width="8"
           height="24"
           id="rect8" />
        <rect
           x="161"
           y="0"
           width="7"
           height="24"
           id="rect10" />
        <rect
           x="172"
           y="0"
           width="9"
           height="24"
           id="rect12" />
        <rect
           x="184"
           y="0"
           width="10"
           height="24"
           id="rect14" />
        <rect
           x="198"
           y="0"
           width="9"
           height="24"
           id="rect16" />
        <rect
           x="210"
           y="0"
           width="9"
           height="24"
           id="rect18" />
        <rect
           x="222"
           y="0"
           width="9"
           height="24"
           id="rect20" />
        <rect
           x="235"
           y="0"
           width="7"
           height="24"
           id="rect22" />
        <rect
           x="245"
           y="0"
           width="9"
           height="24"
           id="rect24" />
        <rect
           x="258"
           y="0"
           width="7"
           height="24"
           id="rect26" />
        <rect
           x="268"
           y="0"
           width="9"
           height="24"
           id="rect28" />
        <rect
           x="280"
           y="0"
           width="9"
           height="24"
           id="rect30" />
        <rect
           x="293"
           y="0"
           width="9"
           height="24"
           id="rect32" />
        <rect
           x="305"
           y="0"
           width="9"
           height="24"
           id="rect34" />
        <rect
           x="317"
           y="0"
           width="9"
           height="24"
           id="rect36" />
        <rect
           x="329"
           y="0"
           width="9"
           height="24"
           id="rect38" />
        <rect
           x="342"
           y="0"
           width="9"
           height="24"
           id="rect40" />
        <rect
           x="354"
           y="0"
           width="9"
           height="24"
           id="rect42" />
        <rect
           x="366"
           y="0"
           width="9"
           height="24"
           id="rect44" />
        <rect
           x="378"
           y="0"
           width="9"
           height="24"
           id="rect46" />
        <rect
           x="390"
           y="0"
           width="9"
           height="24"
           id="rect48" />
        <rect
           x="403"
           y="0"
           width="7"
           height="24"
           id="rect50" />
        <rect
           x="413"
           y="0"
           width="9"
           height="24"
           id="rect52" />
        <text
           x="423"
           y="16"
           id="text54"
           style="font-size:13.3333px">1059.00s in total</text>
      </g>
      <text
         x="0"
         y="16"
         style="font-weight:bold;font-size:18.6667px"
         id="text58">Run 0</text>
      <g
         transform="translate(100)"
         id="g62">
        <text
           x="24"
           y="15"
           id="text60"
           style="font-size:16px">google-0</text>
      </g>
      <path
         d="M 0,26 H 666"
         style="stroke:#000000;stroke-width:1px"
         id="path64" />
    </g>
    <g
       transform="translate(20,20)"
       id="g134">
      <g
         transform="translate(100)"
         id="g122">
        <rect
           x="100"
           y="64"
           width="27"
           height="24"
           id="rect68" />
        <rect
           x="128"
           y="64"
           width="7"
           height="24"
           id="rect70" />
        <rect
           x="178"
           y="32"
           width="9"
           height="24"
           id="rect72" />
        <rect
           x="189"
           y="64"
           width="7"
           height="24"
           id="rect74" />
        <rect
           x="190"
           y="32"
           width="9"
           height="24"
           id="rect76" />
        <rect
           x="201"
           y="64"
           width="7"
           height="24"
           id="rect78" />
        <rect
           x="202"
           y="32"
           width="7"
           height="24"
           id="rect80" />
        <rect
           x="212"
           y="64"
           width="7"
           height="24"
           id="rect82" />
        <rect
           x="213"
           y="32"
           width="7"
           height="24"
           id="rect84" />
        <rect
           x="223"
           y="64"
           width="8"
           height="24"
           id="rect86" />
        <rect
           x="224"
           y="32"
           width="9"
           height="24"
           id="rect88" />
        <rect
           x="235"
           y="64"
           width="8"
           height="24"
           id="rect90" />
        <rect
           x="236"
           y="32"
           width="9"
           height="24"
           id="rect92" />
        <rect
           x="247"
           y="64"
           width="7"
           height="24"
           id="rect94" />
        <rect
           x="248"
           y="32"
           width="7"
           height="24"
           id="rect96" />
        <rect
           x="258"
           y="64"
           width="8"
           height="24"
           id="rect98" />
        <rect
           x="259"
           y="32"
           width="7"
           height="24"
           id="rect100" />
        <rect
           x="269"
           y="64"
           width="8"
           height="24"
           id="rect102" />
        <rect
           x="270"
           y="32"
           width="7"
           height="24"
           id="rect104" />
        <rect
           x="279"
           y="64"
           width="8"
           height="24"
           id="rect106" />
        <rect
           x="280"
           y="32"
           width="9"
           height="24"
           id="rect108" />
        <rect
           x="291"
           y="64"
           width="7"
           height="24"
           id="rect110" />
        <rect
           x="292"
           y="32"
           width="7"
           height="24"
           id="rect112" />
        <rect
           x="302"
           y="64"
           width="8"
           height="24"
           id="rect114" />
        <rect
           x="303"
           y="32"
           width="9"
           height="24"
           id="rect116" />
        <rect
           x="314"
           y="64"
           width="7"
           height="24"
           id="rect118" />
        <text
           x="322"
           y="64"
           id="text120"
           style="font-size:13.3333px">728.00s in total</text>
      </g>
      <text
         x="0"
         y="64"
         style="font-weight:bold;font-size:18.6667px"
         id="text124">Run 1</text>
      <g
         transform="translate(100)"
         id="g130">
        <text
           x="-44"
           y="77"
           id="text126"
           style="font-size:16px">chameleoncloud-0</text>
        <text
           x="24"
           y="45"
           id="text128"
           style="font-size:16px">google-0</text>
      </g>
      <path
         d="M 0,90 H 666"
         style="stroke:#000000;stroke-width:1px"
         id="path132" />
    </g>
    <g
       transform="translate(20,20)"
       id="g206">
      <g
         transform="translate(100)"
         id="g190">
        <rect
           x="100"
           y="160"
           width="27"
           height="24"
           id="rect136" />
        <rect
           x="129"
           y="160"
           width="7"
           height="24"
           id="rect138" />
        <rect
           x="473"
           y="128"
           width="9"
           height="24"
           id="rect140" />
        <rect
           x="476"
           y="96"
           width="8"
           height="24"
           id="rect142" />
        <rect
           x="485"
           y="192"
           width="9"
           height="24"
           id="rect144" />
        <rect
           x="495"
           y="160"
           width="7"
           height="24"
           id="rect146" />
        <rect
           x="496"
           y="128"
           width="9"
           height="24"
           id="rect148" />
        <rect
           x="496"
           y="192"
           width="7"
           height="24"
           id="rect150" />
        <rect
           x="497"
           y="96"
           width="9"
           height="24"
           id="rect152" />
        <rect
           x="507"
           y="160"
           width="7"
           height="24"
           id="rect154" />
        <rect
           x="508"
           y="128"
           width="7"
           height="24"
           id="rect156" />
        <rect
           x="508"
           y="192"
           width="7"
           height="24"
           id="rect158" />
        <rect
           x="509"
           y="96"
           width="9"
           height="24"
           id="rect160" />
        <rect
           x="519"
           y="160"
           width="7"
           height="24"
           id="rect162" />
        <rect
           x="520"
           y="128"
           width="9"
           height="24"
           id="rect164" />
        <rect
           x="521"
           y="192"
           width="8"
           height="24"
           id="rect166" />
        <rect
           x="521"
           y="96"
           width="8"
           height="24"
           id="rect168" />
        <rect
           x="531"
           y="192"
           width="13"
           height="24"
           id="rect170" />
        <rect
           x="532"
           y="160"
           width="7"
           height="24"
           id="rect172" />
        <rect
           x="532"
           y="96"
           width="8"
           height="24"
           id="rect174" />
        <rect
           x="533"
           y="128"
           width="7"
           height="24"
           id="rect176" />
        <rect
           x="545"
           y="160"
           width="7"
           height="24"
           id="rect178" />
        <rect
           x="546"
           y="128"
           width="7"
           height="24"
           id="rect180" />
        <rect
           x="547"
           y="192"
           width="11"
           height="24"
           id="rect182" />
        <rect
           x="547"
           y="96"
           width="8"
           height="24"
           id="rect184" />
        <rect
           x="559"
           y="160"
           width="7"
           height="24"
           id="rect186" />
        <text
           x="566"
           y="160"
           id="text188"
           style="font-size:13.3333px">1529.00s in total</text>
      </g>
      <text
         x="0"
         y="160"
         style="font-weight:bold;font-size:18.6667px"
         id="text192">Run 2</text>
      <g
         transform="translate(100)"
         id="g202">
        <text
           x="-44"
           y="173"
           id="text194"
           style="font-size:16px">chameleoncloud-0</text>
        <text
           x="24"
           y="141"
           id="text196"
           style="font-size:16px">google-0</text>
        <text
           x="26"
           y="109"
           id="text198"
           style="font-size:16px">google-1</text>
        <text
           x="-44"
           y="205"
           id="text200"
           style="font-size:16px">chameleoncloud-1</text>
      </g>
      <path
         d="M 0,218 H 666"
         style="stroke:#000000;stroke-width:1px"
         id="path204" />
    </g>
  </g>
  <text
     x="100.00002"
     y="37.784"
     style="font-size:24px"
     id="text210">Workflow Comparison: Single Cloud vs Multi-Cloud</text>
</svg>
