<svg xmlns="http://www.w3.org/2000/svg" width="1000" height="800">
<g transform="translate(0.000000 40.000000)">
<g transform="translate(20.000000 20.000000)">
<g transform="translate(100.000000 0.000000)">
<rect x="100" y="0" width="33" height="24" >
</rect>
<rect x="138" y="0" width="11" height="24" >
</rect>
<rect x="154" y="0" width="13" height="24" >
</rect>
<rect x="172" y="0" width="12" height="24" >
</rect>
<rect x="189" y="0" width="11" height="24" >
</rect>
<rect x="204" y="0" width="13" height="24" >
</rect>
<rect x="222" y="0" width="15" height="24" >
</rect>
<rect x="242" y="0" width="13" height="24" >
</rect>
<rect x="259" y="0" width="13" height="24" >
</rect>
<rect x="277" y="0" width="13" height="24" >
</rect>
<rect x="295" y="0" width="11" height="24" >
</rect>
<rect x="310" y="0" width="13" height="24" >
</rect>
<rect x="328" y="0" width="11" height="24" >
</rect>
<rect x="343" y="0" width="13" height="24" >
</rect>
<rect x="361" y="0" width="13" height="24" >
</rect>
<rect x="378" y="0" width="13" height="24" >
</rect>
<rect x="396" y="0" width="13" height="24" >
</rect>
<rect x="414" y="0" width="13" height="24" >
</rect>
<rect x="431" y="0" width="13" height="24" >
</rect>
<rect x="449" y="0" width="13" height="24" >
</rect>
<rect x="467" y="0" width="13" height="24" >
</rect>
<rect x="484" y="0" width="13" height="24" >
</rect>
<rect x="502" y="0" width="13" height="24" >
</rect>
<rect x="519" y="0" width="13" height="24" >
</rect>
<rect x="537" y="0" width="11" height="24" >
</rect>
<rect x="553" y="0" width="13" height="24" >
</rect>
<text x="566" y="16" style="">1059.00s in total</text>
</g>
<text x="0" y="16" style="font-weight:bold;font-size:14pt;">Run 0</text>
<g transform="translate(100.000000 0.000000)">
<text x="30" y="13" style="">google-0</text>
</g>
<path d="M0,26 L666,26 " style="stroke: #000000; stroke-width: 1px;" /></g>
<g transform="translate(20.000000 20.000000)">
<g transform="translate(100.000000 0.000000)">
<rect x="100" y="64" width="40" height="24" >
</rect>
<rect x="141" y="64" width="10" height="24" >
</rect>
<rect x="213" y="32" width="13" height="24" >
</rect>
<rect x="229" y="64" width="10" height="24" >
</rect>
<rect x="230" y="32" width="13" height="24" >
</rect>
<rect x="247" y="64" width="10" height="24" >
</rect>
<rect x="248" y="32" width="11" height="24" >
</rect>
<rect x="262" y="64" width="10" height="24" >
</rect>
<rect x="263" y="32" width="11" height="24" >
</rect>
<rect x="278" y="64" width="12" height="24" >
</rect>
<rect x="279" y="32" width="13" height="24" >
</rect>
<rect x="295" y="64" width="12" height="24" >
</rect>
<rect x="296" y="32" width="13" height="24" >
</rect>
<rect x="313" y="64" width="10" height="24" >
</rect>
<rect x="314" y="32" width="11" height="24" >
</rect>
<rect x="328" y="64" width="12" height="24" >
</rect>
<rect x="330" y="32" width="11" height="24" >
</rect>
<rect x="344" y="64" width="12" height="24" >
</rect>
<rect x="345" y="32" width="11" height="24" >
</rect>
<rect x="359" y="64" width="12" height="24" >
</rect>
<rect x="360" y="32" width="13" height="24" >
</rect>
<rect x="377" y="64" width="10" height="24" >
</rect>
<rect x="378" y="32" width="11" height="24" >
</rect>
<rect x="392" y="64" width="12" height="24" >
</rect>
<rect x="393" y="32" width="13" height="24" >
</rect>
<rect x="410" y="64" width="10" height="24" >
</rect>
<text x="420" y="64" style="">728.00s in total</text>
</g>
<text x="0" y="64" style="font-weight:bold;font-size:14pt;">Run 1</text>
<g transform="translate(100.000000 0.000000)">
<text x="-30" y="77" style="">chameleoncloud-0</text>
<text x="30" y="45" style="">google-0</text>
</g>
<path d="M0,90 L666,90 " style="stroke: #000000; stroke-width: 1px;" /></g>
</g>
<text x="100" y="30" style="font-size:18pt;">Workflow Comparison: Single Cloud vs Multi-Cloud</text>
</svg>

