<svg xmlns="http://www.w3.org/2000/svg" width="800" height="1200">
<g transform="None">
<text x="200" y="30" style="font-size:20pt;">ChameleonCloud + Google Compute Engine</text>
<g transform="translate(120 1120)">
<text x="0" y="20" style="">PENDING</text>
<rect x="84" y="0" width="40" height="40" fill="#ff0000">
</rect>
<text x="150" y="20" style="">RUNNING</text>
<rect x="234" y="0" width="40" height="40" fill="#0000ff">
</rect>
</g>
<g transform="translate(0 50)">
<text x="10" y="23" style="">makeblastdb</text>
<text x="10" y="626" style="">task-NC_011171-fasta</text>
<text x="10" y="890" style="">task-NC_013750-fasta</text>
<text x="10" y="287" style="">task-NC_009064-fasta</text>
<text x="10" y="212" style="">task-NC_009062-fasta</text>
<text x="10" y="325" style="">task-NC_009065-fasta</text>
<text x="10" y="815" style="">task-NC_013577-fasta</text>
<text x="10" y="476" style="">task-NC_010205-fasta</text>
<text x="10" y="363" style="">task-NC_009066-fasta</text>
<text x="10" y="664" style="">task-NC_011177-fasta</text>
<text x="10" y="250" style="">task-NC_009063-fasta</text>
<text x="10" y="551" style="">task-NC_011169-fasta</text>
<text x="10" y="853" style="">task-NC_013663-fasta</text>
<text x="10" y="400" style="">task-NC_009067-fasta</text>
<text x="10" y="740" style="">task-NC_012055-fasta</text>
<text x="10" y="136" style="">task-NC_009059-fasta</text>
<text x="10" y="438" style="">task-NC_009459-fasta</text>
<text x="10" y="61" style="">task-NC_009057-fasta</text>
<text x="10" y="174" style="">task-NC_009060-fasta</text>
<text x="10" y="589" style="">task-NC_011170-fasta</text>
<text x="10" y="99" style="">task-NC_009058-fasta</text>
<text x="10" y="928" style="">task-NC_018814-fasta</text>
<text x="10" y="966" style="">task-NC_018815-fasta</text>
<text x="10" y="777" style="">task-NC_013564-fasta</text>
<text x="10" y="513" style="">task-NC_011168-fasta</text>
<text x="10" y="702" style="">task-NC_011179-fasta</text>
<g transform="translate(200 0)">
<rect x="10" y="10" width="0" height="27" fill="#ff0000">
</rect>
<rect x="10" y="10" width="42" height="27" fill="#0000ff">
</rect>
<rect x="57" y="613" width="0" height="27" fill="#ff0000">
</rect>
<rect x="57" y="613" width="18" height="27" fill="#0000ff">
</rect>
<rect x="272" y="876" width="0" height="27" fill="#ff0000">
</rect>
<rect x="273" y="876" width="16" height="27" fill="#0000ff">
</rect>
<rect x="293" y="273" width="0" height="27" fill="#ff0000">
</rect>
<rect x="293" y="273" width="13" height="27" fill="#0000ff">
</rect>
<rect x="293" y="198" width="0" height="27" fill="#ff0000">
</rect>
<rect x="293" y="198" width="17" height="27" fill="#0000ff">
</rect>
<rect x="312" y="311" width="0" height="27" fill="#ff0000">
</rect>
<rect x="312" y="311" width="18" height="27" fill="#0000ff">
</rect>
<rect x="315" y="801" width="0" height="27" fill="#ff0000">
</rect>
<rect x="315" y="801" width="14" height="27" fill="#0000ff">
</rect>
<rect x="334" y="462" width="0" height="27" fill="#ff0000">
</rect>
<rect x="334" y="462" width="14" height="27" fill="#0000ff">
</rect>
<rect x="334" y="349" width="0" height="27" fill="#ff0000">
</rect>
<rect x="334" y="349" width="24" height="27" fill="#0000ff">
</rect>
<rect x="361" y="650" width="0" height="27" fill="#ff0000">
</rect>
<rect x="361" y="650" width="14" height="27" fill="#0000ff">
</rect>
<rect x="361" y="236" width="0" height="27" fill="#ff0000">
</rect>
<rect x="361" y="236" width="21" height="27" fill="#0000ff">
</rect>
<rect x="386" y="537" width="0" height="27" fill="#ff0000">
</rect>
<rect x="386" y="537" width="14" height="27" fill="#0000ff">
</rect>
<rect x="386" y="839" width="0" height="27" fill="#ff0000">
</rect>
<rect x="386" y="839" width="21" height="27" fill="#0000ff">
</rect>
<rect x="411" y="386" width="0" height="27" fill="#ff0000">
</rect>
<rect x="411" y="386" width="14" height="27" fill="#0000ff">
</rect>
<rect x="411" y="726" width="0" height="27" fill="#ff0000">
</rect>
<rect x="411" y="726" width="21" height="27" fill="#0000ff">
</rect>
<rect x="435" y="123" width="0" height="27" fill="#ff0000">
</rect>
<rect x="436" y="123" width="17" height="27" fill="#0000ff">
</rect>
<rect x="436" y="424" width="0" height="27" fill="#ff0000">
</rect>
<rect x="436" y="424" width="24" height="27" fill="#0000ff">
</rect>
<rect x="463" y="47" width="0" height="27" fill="#ff0000">
</rect>
<rect x="463" y="47" width="14" height="27" fill="#0000ff">
</rect>
<rect x="463" y="160" width="0" height="27" fill="#ff0000">
</rect>
<rect x="463" y="160" width="24" height="27" fill="#0000ff">
</rect>
<rect x="491" y="575" width="0" height="27" fill="#ff0000">
</rect>
<rect x="491" y="575" width="17" height="27" fill="#0000ff">
</rect>
<rect x="491" y="85" width="0" height="27" fill="#ff0000">
</rect>
<rect x="491" y="85" width="21" height="27" fill="#0000ff">
</rect>
<rect x="515" y="914" width="0" height="27" fill="#ff0000">
</rect>
<rect x="516" y="914" width="14" height="27" fill="#0000ff">
</rect>
<rect x="516" y="952" width="0" height="27" fill="#ff0000">
</rect>
<rect x="516" y="952" width="21" height="27" fill="#0000ff">
</rect>
<rect x="540" y="763" width="0" height="27" fill="#ff0000">
</rect>
<rect x="540" y="763" width="14" height="27" fill="#0000ff">
</rect>
<rect x="540" y="500" width="0" height="27" fill="#ff0000">
</rect>
<rect x="540" y="500" width="21" height="27" fill="#0000ff">
</rect>
<rect x="565" y="688" width="0" height="27" fill="#ff0000">
</rect>
<rect x="565" y="688" width="14" height="27" fill="#0000ff">
</rect>
<g transform="translate(0 1000)">
<path d="M10,0 L580,0" stroke="#000000"></path>
<path d="M10.0,0 L10.0,6" stroke="#000000"></path><text x="6" y="20" style="font-size: 10pt">0</text>
<path d="M67.0,0 L67.0,6" stroke="#000000"></path><text x="63" y="20" style="font-size: 10pt">103</text>
<path d="M124.0,0 L124.0,6" stroke="#000000"></path><text x="120" y="20" style="font-size: 10pt">207</text>
<path d="M181.0,0 L181.0,6" stroke="#000000"></path><text x="177" y="20" style="font-size: 10pt">310</text>
<path d="M238.0,0 L238.0,6" stroke="#000000"></path><text x="234" y="20" style="font-size: 10pt">414</text>
<path d="M295.0,0 L295.0,6" stroke="#000000"></path><text x="291" y="20" style="font-size: 10pt">517</text>
<path d="M352.0,0 L352.0,6" stroke="#000000"></path><text x="348" y="20" style="font-size: 10pt">621</text>
<path d="M409.0,0 L409.0,6" stroke="#000000"></path><text x="405" y="20" style="font-size: 10pt">724</text>
<path d="M466.0,0 L466.0,6" stroke="#000000"></path><text x="462" y="20" style="font-size: 10pt">828</text>
<path d="M523.0,0 L523.0,6" stroke="#000000"></path><text x="519" y="20" style="font-size: 10pt">931</text>
<text x="200" y="40" style="">Execution time (s)</text>
</g>
</g>
</g>
</g>
</svg>

