<svg xmlns="http://www.w3.org/2000/svg" width="800" height="1200">
<g transform="None">
<text x="200" y="30" style="font-size:20pt;">HPC-Only (Darwin) BLAST Run</text>
<g transform="translate(120 1120)">
<text x="0" y="20" style="">COMPLETING</text>
<rect x="120" y="0" width="40" height="40" fill="#ff0000">
</rect>
<text x="150" y="20" style="">NOT_RESPONDING</text>
<rect x="318" y="0" width="40" height="40" fill="#0000ff">
</rect>
<text x="300" y="20" style="">PENDING</text>
<rect x="384" y="0" width="40" height="40" fill="#ff0000">
</rect>
<text x="450" y="20" style="">RUNNING</text>
<rect x="534" y="0" width="40" height="40" fill="#0000ff">
</rect>
</g>
<g transform="translate(0 50)">
<text x="10" y="23" style="">makeblastdb</text>
<text x="10" y="250" style="">task-NC_009063-fasta</text>
<text x="10" y="363" style="">task-NC_009066-fasta</text>
<text x="10" y="174" style="">task-NC_009060-fasta</text>
<text x="10" y="438" style="">task-NC_009459-fasta</text>
<text x="10" y="99" style="">task-NC_009058-fasta</text>
<text x="10" y="61" style="">task-NC_009057-fasta</text>
<text x="10" y="325" style="">task-NC_009065-fasta</text>
<text x="10" y="815" style="">task-NC_013577-fasta</text>
<text x="10" y="664" style="">task-NC_011177-fasta</text>
<text x="10" y="136" style="">task-NC_009059-fasta</text>
<text x="10" y="400" style="">task-NC_009067-fasta</text>
<text x="10" y="890" style="">task-NC_013750-fasta</text>
<text x="10" y="287" style="">task-NC_009064-fasta</text>
<text x="10" y="777" style="">task-NC_013564-fasta</text>
<text x="10" y="966" style="">task-NC_018815-fasta</text>
<text x="10" y="513" style="">task-NC_011168-fasta</text>
<text x="10" y="626" style="">task-NC_011171-fasta</text>
<text x="10" y="551" style="">task-NC_011169-fasta</text>
<text x="10" y="702" style="">task-NC_011179-fasta</text>
<text x="10" y="212" style="">task-NC_009062-fasta</text>
<text x="10" y="740" style="">task-NC_012055-fasta</text>
<text x="10" y="853" style="">task-NC_013663-fasta</text>
<text x="10" y="589" style="">task-NC_011170-fasta</text>
<text x="10" y="476" style="">task-NC_010205-fasta</text>
<text x="10" y="928" style="">task-NC_018814-fasta</text>
<g transform="translate(200 0)">
<rect x="10" y="10" width="10" height="27" fill="#ff0000">
</rect>
<rect x="20" y="10" width="1" height="27" fill="#0000ff">
</rect>
<rect x="21" y="10" width="29" height="27" fill="#ff0000">
</rect>
<rect x="51" y="10" width="1" height="27" fill="#0000ff">
</rect>
<rect x="53" y="10" width="16" height="27" fill="#ff0000">
</rect>
<rect x="69" y="10" width="1" height="27" fill="#0000ff">
</rect>
<rect x="70" y="10" width="37" height="27" fill="#ff0000">
</rect>
<rect x="108" y="10" width="1" height="27" fill="#0000ff">
</rect>
<rect x="109" y="10" width="143" height="27" fill="#ff0000">
</rect>
<rect x="253" y="10" width="1" height="27" fill="#0000ff">
</rect>
<rect x="254" y="10" width="144" height="27" fill="#ff0000">
</rect>
<rect x="399" y="10" width="19" height="27" fill="#0000ff">
</rect>
<rect x="419" y="236" width="12" height="27" fill="#ff0000">
</rect>
<rect x="432" y="236" width="5" height="27" fill="#0000ff">
</rect>
<rect x="419" y="349" width="18" height="27" fill="#ff0000">
</rect>
<rect x="437" y="349" width="6" height="27" fill="#0000ff">
</rect>
<rect x="419" y="160" width="24" height="27" fill="#ff0000">
</rect>
<rect x="444" y="160" width="5" height="27" fill="#0000ff">
</rect>
<rect x="449" y="160" width="1" height="27" fill="#ff0000">
</rect>
<rect x="419" y="424" width="31" height="27" fill="#ff0000">
</rect>
<rect x="451" y="424" width="5" height="27" fill="#0000ff">
</rect>
<rect x="419" y="85" width="36" height="27" fill="#ff0000">
</rect>
<rect x="456" y="85" width="5" height="27" fill="#0000ff">
</rect>
<rect x="420" y="47" width="41" height="27" fill="#ff0000">
</rect>
<rect x="462" y="47" width="6" height="27" fill="#0000ff">
</rect>
<rect x="420" y="311" width="48" height="27" fill="#ff0000">
</rect>
<rect x="468" y="311" width="5" height="27" fill="#0000ff">
</rect>
<rect x="420" y="801" width="54" height="27" fill="#ff0000">
</rect>
<rect x="474" y="801" width="5" height="27" fill="#0000ff">
</rect>
<rect x="420" y="650" width="59" height="27" fill="#ff0000">
</rect>
<rect x="479" y="650" width="5" height="27" fill="#0000ff">
</rect>
<rect x="484" y="650" width="1" height="27" fill="#ff0000">
</rect>
<rect x="420" y="123" width="64" height="27" fill="#ff0000">
</rect>
<rect x="485" y="123" width="6" height="27" fill="#0000ff">
</rect>
<rect x="420" y="386" width="71" height="27" fill="#ff0000">
</rect>
<rect x="491" y="386" width="5" height="27" fill="#0000ff">
</rect>
<rect x="420" y="876" width="76" height="27" fill="#ff0000">
</rect>
<rect x="497" y="876" width="5" height="27" fill="#0000ff">
</rect>
<rect x="421" y="273" width="81" height="27" fill="#ff0000">
</rect>
<rect x="502" y="273" width="6" height="27" fill="#0000ff">
</rect>
<rect x="421" y="763" width="88" height="27" fill="#ff0000">
</rect>
<rect x="509" y="763" width="5" height="27" fill="#0000ff">
</rect>
<rect x="421" y="952" width="93" height="27" fill="#ff0000">
</rect>
<rect x="515" y="952" width="5" height="27" fill="#0000ff">
</rect>
<rect x="520" y="952" width="1" height="27" fill="#ff0000">
</rect>
<rect x="421" y="500" width="100" height="27" fill="#ff0000">
</rect>
<rect x="521" y="500" width="5" height="27" fill="#0000ff">
</rect>
<rect x="421" y="613" width="105" height="27" fill="#ff0000">
</rect>
<rect x="527" y="613" width="6" height="27" fill="#0000ff">
</rect>
<rect x="421" y="537" width="112" height="27" fill="#ff0000">
</rect>
<rect x="533" y="537" width="5" height="27" fill="#0000ff">
</rect>
<rect x="421" y="688" width="117" height="27" fill="#ff0000">
</rect>
<rect x="539" y="688" width="5" height="27" fill="#0000ff">
</rect>
<rect x="544" y="688" width="1" height="27" fill="#ff0000">
</rect>
<rect x="421" y="198" width="124" height="27" fill="#ff0000">
</rect>
<rect x="546" y="198" width="5" height="27" fill="#0000ff">
</rect>
<rect x="421" y="726" width="129" height="27" fill="#ff0000">
</rect>
<rect x="551" y="726" width="5" height="27" fill="#0000ff">
</rect>
<rect x="421" y="839" width="135" height="27" fill="#ff0000">
</rect>
<rect x="556" y="839" width="5" height="27" fill="#0000ff">
</rect>
<rect x="422" y="575" width="140" height="27" fill="#ff0000">
</rect>
<rect x="562" y="575" width="6" height="27" fill="#0000ff">
</rect>
<rect x="422" y="462" width="147" height="27" fill="#ff0000">
</rect>
<rect x="569" y="462" width="5" height="27" fill="#0000ff">
</rect>
<rect x="422" y="914" width="152" height="27" fill="#ff0000">
</rect>
<rect x="574" y="914" width="5" height="27" fill="#0000ff">
</rect>
<g transform="translate(0 1000)">
<path d="M10,0 L580,0" stroke="#000000"></path>
<path d="M10.0,0 L10.0,6" stroke="#000000"></path><text x="6" y="20" style="font-size: 10pt">0</text>
<path d="M67.0,0 L67.0,6" stroke="#000000"></path><text x="63" y="20" style="font-size: 10pt">210</text>
<path d="M124.0,0 L124.0,6" stroke="#000000"></path><text x="120" y="20" style="font-size: 10pt">421</text>
<path d="M181.0,0 L181.0,6" stroke="#000000"></path><text x="177" y="20" style="font-size: 10pt">631</text>
<path d="M238.0,0 L238.0,6" stroke="#000000"></path><text x="234" y="20" style="font-size: 10pt">842</text>
<path d="M295.0,0 L295.0,6" stroke="#000000"></path><text x="291" y="20" style="font-size: 10pt">1052</text>
<path d="M352.0,0 L352.0,6" stroke="#000000"></path><text x="348" y="20" style="font-size: 10pt">1263</text>
<path d="M409.0,0 L409.0,6" stroke="#000000"></path><text x="405" y="20" style="font-size: 10pt">1473</text>
<path d="M466.0,0 L466.0,6" stroke="#000000"></path><text x="462" y="20" style="font-size: 10pt">1684</text>
<path d="M523.0,0 L523.0,6" stroke="#000000"></path><text x="519" y="20" style="font-size: 10pt">1894</text>
<text x="200" y="40" style="">Execution time (s)</text>
</g>
</g>
</g>
</g>
</svg>

