<svg xmlns="http://www.w3.org/2000/svg" width="1100" height="1200">
<g transform="None">
<text x="275" y="30" style="font-size:20pt;">HPC-Only (Darwin) BLAST Run</text>
<g transform="translate(120 1120)">
<text x="0" y="20" style="">COMPLETING</text>
<rect x="120" y="0" width="40" height="40" fill="#ff0000">
</rect>
<text x="150" y="20" style="">NOT_RESPONDING</text>
<rect x="318" y="0" width="40" height="40" fill="#0000ff">
</rect>
<text x="300" y="20" style="">PENDING</text>
<rect x="384" y="0" width="40" height="40" fill="#ff0000">
</rect>
<text x="450" y="20" style="">RUNNING</text>
<rect x="534" y="0" width="40" height="40" fill="#0000ff">
</rect>
</g>
<g transform="translate(0 50)">
<text x="10" y="23" style="">makeblastdb</text>
<text x="10" y="250" style="">task-NC_009063-fasta</text>
<text x="10" y="363" style="">task-NC_009066-fasta</text>
<text x="10" y="174" style="">task-NC_009060-fasta</text>
<text x="10" y="438" style="">task-NC_009459-fasta</text>
<text x="10" y="99" style="">task-NC_009058-fasta</text>
<text x="10" y="61" style="">task-NC_009057-fasta</text>
<text x="10" y="325" style="">task-NC_009065-fasta</text>
<text x="10" y="815" style="">task-NC_013577-fasta</text>
<text x="10" y="664" style="">task-NC_011177-fasta</text>
<text x="10" y="136" style="">task-NC_009059-fasta</text>
<text x="10" y="400" style="">task-NC_009067-fasta</text>
<text x="10" y="890" style="">task-NC_013750-fasta</text>
<text x="10" y="287" style="">task-NC_009064-fasta</text>
<text x="10" y="777" style="">task-NC_013564-fasta</text>
<text x="10" y="966" style="">task-NC_018815-fasta</text>
<text x="10" y="513" style="">task-NC_011168-fasta</text>
<text x="10" y="626" style="">task-NC_011171-fasta</text>
<text x="10" y="551" style="">task-NC_011169-fasta</text>
<text x="10" y="702" style="">task-NC_011179-fasta</text>
<text x="10" y="212" style="">task-NC_009062-fasta</text>
<text x="10" y="740" style="">task-NC_012055-fasta</text>
<text x="10" y="853" style="">task-NC_013663-fasta</text>
<text x="10" y="589" style="">task-NC_011170-fasta</text>
<text x="10" y="476" style="">task-NC_010205-fasta</text>
<text x="10" y="928" style="">task-NC_018814-fasta</text>
<g transform="translate(200 0)">
<rect x="10" y="10" width="14" height="27" fill="#ff0000">
</rect>
<rect x="24" y="10" width="1" height="27" fill="#0000ff">
</rect>
<rect x="26" y="10" width="40" height="27" fill="#ff0000">
</rect>
<rect x="66" y="10" width="1" height="27" fill="#0000ff">
</rect>
<rect x="68" y="10" width="21" height="27" fill="#ff0000">
</rect>
<rect x="90" y="10" width="1" height="27" fill="#0000ff">
</rect>
<rect x="91" y="10" width="51" height="27" fill="#ff0000">
</rect>
<rect x="143" y="10" width="1" height="27" fill="#0000ff">
</rect>
<rect x="144" y="10" width="193" height="27" fill="#ff0000">
</rect>
<rect x="338" y="10" width="1" height="27" fill="#0000ff">
</rect>
<rect x="340" y="10" width="195" height="27" fill="#ff0000">
</rect>
<rect x="536" y="10" width="25" height="27" fill="#0000ff">
</rect>
<rect x="563" y="236" width="16" height="27" fill="#ff0000">
</rect>
<rect x="580" y="236" width="7" height="27" fill="#0000ff">
</rect>
<rect x="563" y="349" width="24" height="27" fill="#ff0000">
</rect>
<rect x="587" y="349" width="9" height="27" fill="#0000ff">
</rect>
<rect x="563" y="160" width="33" height="27" fill="#ff0000">
</rect>
<rect x="597" y="160" width="6" height="27" fill="#0000ff">
</rect>
<rect x="604" y="160" width="2" height="27" fill="#ff0000">
</rect>
<rect x="563" y="424" width="42" height="27" fill="#ff0000">
</rect>
<rect x="606" y="424" width="7" height="27" fill="#0000ff">
</rect>
<rect x="563" y="85" width="49" height="27" fill="#ff0000">
</rect>
<rect x="613" y="85" width="7" height="27" fill="#0000ff">
</rect>
<rect x="564" y="47" width="56" height="27" fill="#ff0000">
</rect>
<rect x="620" y="47" width="9" height="27" fill="#0000ff">
</rect>
<rect x="564" y="311" width="65" height="27" fill="#ff0000">
</rect>
<rect x="630" y="311" width="7" height="27" fill="#0000ff">
</rect>
<rect x="564" y="801" width="73" height="27" fill="#ff0000">
</rect>
<rect x="637" y="801" width="7" height="27" fill="#0000ff">
</rect>
<rect x="564" y="650" width="80" height="27" fill="#ff0000">
</rect>
<rect x="644" y="650" width="6" height="27" fill="#0000ff">
</rect>
<rect x="651" y="650" width="2" height="27" fill="#ff0000">
</rect>
<rect x="564" y="123" width="87" height="27" fill="#ff0000">
</rect>
<rect x="651" y="123" width="9" height="27" fill="#0000ff">
</rect>
<rect x="564" y="386" width="96" height="27" fill="#ff0000">
</rect>
<rect x="661" y="386" width="7" height="27" fill="#0000ff">
</rect>
<rect x="564" y="876" width="103" height="27" fill="#ff0000">
</rect>
<rect x="668" y="876" width="7" height="27" fill="#0000ff">
</rect>
<rect x="565" y="273" width="110" height="27" fill="#ff0000">
</rect>
<rect x="675" y="273" width="9" height="27" fill="#0000ff">
</rect>
<rect x="565" y="763" width="119" height="27" fill="#ff0000">
</rect>
<rect x="684" y="763" width="7" height="27" fill="#0000ff">
</rect>
<rect x="565" y="952" width="126" height="27" fill="#ff0000">
</rect>
<rect x="692" y="952" width="6" height="27" fill="#0000ff">
</rect>
<rect x="699" y="952" width="2" height="27" fill="#ff0000">
</rect>
<rect x="565" y="500" width="135" height="27" fill="#ff0000">
</rect>
<rect x="701" y="500" width="7" height="27" fill="#0000ff">
</rect>
<rect x="565" y="613" width="143" height="27" fill="#ff0000">
</rect>
<rect x="708" y="613" width="9" height="27" fill="#0000ff">
</rect>
<rect x="566" y="537" width="151" height="27" fill="#ff0000">
</rect>
<rect x="717" y="537" width="7" height="27" fill="#0000ff">
</rect>
<rect x="566" y="688" width="159" height="27" fill="#ff0000">
</rect>
<rect x="725" y="688" width="6" height="27" fill="#0000ff">
</rect>
<rect x="732" y="688" width="2" height="27" fill="#ff0000">
</rect>
<rect x="566" y="198" width="168" height="27" fill="#ff0000">
</rect>
<rect x="734" y="198" width="7" height="27" fill="#0000ff">
</rect>
<rect x="566" y="726" width="175" height="27" fill="#ff0000">
</rect>
<rect x="741" y="726" width="7" height="27" fill="#0000ff">
</rect>
<rect x="566" y="839" width="182" height="27" fill="#ff0000">
</rect>
<rect x="748" y="839" width="7" height="27" fill="#0000ff">
</rect>
<rect x="566" y="575" width="189" height="27" fill="#ff0000">
</rect>
<rect x="756" y="575" width="9" height="27" fill="#0000ff">
</rect>
<rect x="566" y="462" width="198" height="27" fill="#ff0000">
</rect>
<rect x="765" y="462" width="7" height="27" fill="#0000ff">
</rect>
<rect x="566" y="914" width="205" height="27" fill="#ff0000">
</rect>
<rect x="772" y="914" width="7" height="27" fill="#0000ff">
</rect>
<g transform="translate(0 1000)">
<path d="M10,0 L780,0" stroke="#000000"></path>
<path d="M10.0,0 L10.0,6" stroke="#000000"></path><text x="6" y="20" style="font-size: 10pt">0</text>
<path d="M87.0,0 L87.0,6" stroke="#000000"></path><text x="83" y="20" style="font-size: 10pt">210</text>
<path d="M164.0,0 L164.0,6" stroke="#000000"></path><text x="160" y="20" style="font-size: 10pt">421</text>
<path d="M241.0,0 L241.0,6" stroke="#000000"></path><text x="237" y="20" style="font-size: 10pt">631</text>
<path d="M318.0,0 L318.0,6" stroke="#000000"></path><text x="314" y="20" style="font-size: 10pt">842</text>
<path d="M395.0,0 L395.0,6" stroke="#000000"></path><text x="391" y="20" style="font-size: 10pt">1052</text>
<path d="M472.0,0 L472.0,6" stroke="#000000"></path><text x="468" y="20" style="font-size: 10pt">1263</text>
<path d="M549.0,0 L549.0,6" stroke="#000000"></path><text x="545" y="20" style="font-size: 10pt">1473</text>
<path d="M626.0,0 L626.0,6" stroke="#000000"></path><text x="622" y="20" style="font-size: 10pt">1684</text>
<path d="M703.0,0 L703.0,6" stroke="#000000"></path><text x="699" y="20" style="font-size: 10pt">1894</text>
<text x="266" y="40" style="">Execution time (s)</text>
</g>
</g>
</g>
</g>
</svg>

