<svg xmlns="http://www.w3.org/2000/svg" width="800" height="500">
<g transform="None">
<text x="200" y="30" style="font-size:20pt;">Blast Workflow 1 Task Execution Time</text>
<g transform="translate(120 320)">
<text x="0" y="20" style="">PENDING</text>
<rect x="84" y="0" width="40" height="40" fill="#ff0000">
</rect>
<text x="150" y="20" style="">RUNNING</text>
<rect x="234" y="0" width="40" height="40" fill="#0000ff">
</rect>
</g>
<g transform="translate(0 50)">
<text x="10" y="35" style="">makeblastdb</text>
<text x="10" y="95" style="">worker0</text>
<text x="10" y="155" style="">worker1</text>
<g transform="translate(100 0)">
<rect x="10" y="10" width="10" height="50" fill="#ff0000">
</rect>
<rect x="20" y="10" width="137" height="50" fill="#0000ff">
</rect>
<rect x="231" y="70" width="0" height="50" fill="#ff0000">
</rect>
<rect x="231" y="70" width="137" height="50" fill="#0000ff">
</rect>
<rect x="432" y="130" width="0" height="50" fill="#ff0000">
</rect>
<rect x="432" y="130" width="147" height="50" fill="#0000ff">
</rect>
<g transform="translate(0 200)">
<path d="M10,0 L580,0" stroke="#000000"></path>
<path d="M10.0,0 L10.0,6" stroke="#000000"></path><text x="6" y="20" style="font-size: 10pt">0</text>
<path d="M67.00000100665622,0 L67.00000100665622,6" stroke="#000000"></path><text x="63" y="20" style="font-size: 10pt">5</text>
<path d="M123.99999949667189,0 L123.99999949667189,6" stroke="#000000"></path><text x="119" y="20" style="font-size: 10pt">10</text>
<path d="M181.0000005033281,0 L181.0000005033281,6" stroke="#000000"></path><text x="177" y="20" style="font-size: 10pt">16</text>
<path d="M237.99999899334378,0 L237.99999899334378,6" stroke="#000000"></path><text x="233" y="20" style="font-size: 10pt">21</text>
<path d="M295.0,0 L295.0,6" stroke="#000000"></path><text x="291" y="20" style="font-size: 10pt">27</text>
<path d="M352.0000010066562,0 L352.0000010066562,6" stroke="#000000"></path><text x="348" y="20" style="font-size: 10pt">32</text>
<path d="M408.9999994966719,0 L408.9999994966719,6" stroke="#000000"></path><text x="404" y="20" style="font-size: 10pt">37</text>
<path d="M466.0000005033281,0 L466.0000005033281,6" stroke="#000000"></path><text x="462" y="20" style="font-size: 10pt">43</text>
<path d="M522.9999989933438,0 L522.9999989933438,6" stroke="#000000"></path><text x="518" y="20" style="font-size: 10pt">48</text>
<text x="200" y="40" style="">Execution time (s)</text>
</g>
</g>
</g>
</g>
</svg>

